<?xml version="1.0" standalone="no"?>
<!DOCTYPE svg PUBLIC "-//W3C//DTD SVG 20010904//EN"
 "http://www.w3.org/TR/2001/REC-SVG-20010904/DTD/svg10.dtd">
<svg version="1.0" xmlns="http://www.w3.org/2000/svg"
 width="512.000000pt" height="512.000000pt" viewBox="0 0 512.000000 512.000000"
 preserveAspectRatio="xMidYMid meet">

<g transform="translate(0.000000,512.000000) scale(0.100000,-0.100000)"
fill="#000000" stroke="none">
<path d="M2620 3910 c457 -5 613 -10 715 -23 178 -23 229 -33 278 -55 127 -58
275 -240 429 -530 21 -39 50 -79 66 -90 25 -18 20 -4 -50 131 -138 271 -315
474 -446 514 -26 7 -121 23 -212 35 -149 19 -222 21 -765 23 l-600 2 585 -7z"/>
<path d="M1953 3903 c15 -2 39 -2 55 0 15 2 2 4 -28 4 -30 0 -43 -2 -27 -4z"/>
<path d="M1853 3893 c15 -2 37 -2 50 0 12 2 0 4 -28 4 -27 0 -38 -2 -22 -4z"/>
<path d="M1758 3883 c12 -2 30 -2 40 0 9 3 -1 5 -23 4 -22 0 -30 -2 -17 -4z"/>
<path d="M1673 3873 c9 -2 25 -2 35 0 9 3 1 5 -18 5 -19 0 -27 -2 -17 -5z"/>
<path d="M1603 3863 c9 -2 23 -2 30 0 6 3 -1 5 -18 5 -16 0 -22 -2 -12 -5z"/>
<path d="M1548 3853 c6 -2 18 -2 25 0 6 3 1 5 -13 5 -14 0 -19 -2 -12 -5z"/>
<path d="M1339 3708 c-93 -107 -214 -301 -264 -420 -30 -74 -4 -36 49 70 66
130 160 275 233 360 30 34 52 62 49 62 -3 0 -33 -32 -67 -72z"/>
<path d="M2193 3763 c26 -2 68 -2 95 0 26 2 4 3 -48 3 -52 0 -74 -1 -47 -3z"/>
<path d="M2713 3763 c20 -2 54 -2 75 0 20 2 3 4 -38 4 -41 0 -58 -2 -37 -4z"/>
<path d="M2018 3753 c18 -2 45 -2 60 0 15 2 0 4 -33 4 -33 0 -45 -2 -27 -4z"/>
<path d="M2923 3753 c26 -2 67 -2 90 0 23 2 2 3 -48 3 -49 0 -68 -1 -42 -3z"/>
<path d="M3077 3748 c2 -5 48 -7 101 -7 109 2 98 7 -25 11 -44 2 -79 0 -76 -4z"/>
<path d="M1918 3743 c12 -2 30 -2 40 0 9 3 -1 5 -23 4 -22 0 -30 -2 -17 -4z"/>
<path d="M3296 3738 c3 -4 35 -8 72 -7 79 1 72 6 -15 11 -34 2 -60 1 -57 -4z"/>
<path d="M1823 3733 c9 -2 25 -2 35 0 9 3 1 5 -18 5 -19 0 -27 -2 -17 -5z"/>
<path d="M1698 3723 c7 -3 16 -2 19 1 4 3 -2 6 -13 5 -11 0 -14 -3 -6 -6z"/>
<path d="M3463 3723 c9 -2 25 -2 35 0 9 3 1 5 -18 5 -19 0 -27 -2 -17 -5z"/>
<path d="M3538 3713 c6 -2 18 -2 25 0 6 3 1 5 -13 5 -14 0 -19 -2 -12 -5z"/>
<path d="M1460 3613 l-55 -58 58 55 c53 50 62 60 54 60 -1 0 -27 -26 -57 -57z"/>
<path d="M3728 3566 c86 -107 118 -155 173 -260 37 -69 49 -85 49 -64 0 77
-154 310 -252 379 -25 18 -19 7 30 -55z"/>
<path d="M1379 3523 c-13 -16 -12 -17 4 -4 16 13 21 21 13 21 -2 0 -10 -8 -17
-17z"/>
<path d="M1330 3450 c-6 -11 -8 -20 -6 -20 3 0 10 9 16 20 6 11 8 20 6 20 -3
0 -10 -9 -16 -20z"/>
<path d="M1247 3285 c-56 -114 -57 -115 -33 -121 12 -3 40 -4 62 -1 34 3 32 4
-13 5 -29 1 -53 4 -53 7 0 2 23 52 50 111 28 59 49 109 47 110 -1 2 -28 -48
-60 -111z"/>
<path d="M2378 3319 c-169 -14 -641 -80 -621 -86 6 -2 87 7 179 21 520 78 737
75 1349 -14 293 -43 504 -70 534 -69 28 1 -365 62 -664 103 -387 54 -556 63
-777 45z"/>
<path d="M1703 3223 c9 -2 23 -2 30 0 6 3 -1 5 -18 5 -16 0 -22 -2 -12 -5z"/>
<path d="M1643 3213 c9 -2 23 -2 30 0 6 3 -1 5 -18 5 -16 0 -22 -2 -12 -5z"/>
<path d="M1583 3203 c9 -2 23 -2 30 0 6 3 -1 5 -18 5 -16 0 -22 -2 -12 -5z"/>
<path d="M890 3190 c-19 -6 -11 -8 33 -9 36 -1 56 3 52 9 -7 12 -49 12 -85 0z"/>
<path d="M1454 3188 c-6 -10 19 -9 71 1 40 9 40 9 -13 8 -30 -1 -56 -5 -58 -9z"/>
<path d="M4215 3189 c168 -60 292 -155 376 -288 23 -36 53 -82 66 -101 61 -94
54 -521 -13 -740 -20 -69 -69 -167 -98 -198 -20 -23 -21 -32 -21 -297 0 -252
-1 -274 -19 -293 -31 -35 -105 -44 -319 -40 -180 3 -195 2 -165 -11 44 -20
343 -28 420 -12 101 21 98 11 98 320 l0 268 40 59 c94 138 134 319 133 599 -1
266 -22 359 -109 482 -94 132 -260 249 -366 259 -47 4 -50 3 -23 -7z"/>
<path d="M1365 3180 c-26 -6 -24 -7 18 -7 26 0 50 3 53 8 6 10 -28 10 -71 -1z"/>
<path d="M588 3003 c-99 -106 -154 -382 -130 -656 13 -148 47 -298 86 -375 15
-29 26 -55 25 -58 0 -4 5 -10 13 -15 7 -5 13 -14 13 -20 0 -7 6 -14 12 -16 7
-3 -1 22 -17 55 -82 165 -114 329 -114 572 1 238 32 375 109 490 19 28 33 50
31 50 -1 0 -14 -12 -28 -27z"/>
<path d="M810 2909 c-70 -28 -133 -108 -146 -185 -10 -65 18 -144 66 -188 22
-20 50 -36 63 -36 18 1 16 4 -14 20 -127 67 -140 227 -25 327 95 84 222 64
296 -46 24 -36 30 -55 30 -98 0 -34 4 -52 10 -48 13 8 13 76 0 109 -15 40 -91
117 -135 137 -44 20 -106 23 -145 8z"/>
<path d="M4195 2904 c-16 -8 -43 -27 -59 -42 -104 -98 -81 -308 41 -358 53
-23 72 -15 24 9 -123 61 -148 204 -53 309 49 54 86 71 153 71 114 -1 181 -73
181 -196 0 -39 3 -55 9 -46 31 49 -12 175 -75 222 -63 48 -163 62 -221 31z"/>
<path d="M2550 2871 c-20 -38 -30 -160 -30 -382 0 -165 3 -230 13 -242 10 -14
11 24 9 200 -3 217 8 364 29 389 32 39 36 17 46 -253 l10 -268 -1 266 c-1 248
-2 268 -20 288 -24 26 -42 27 -56 2z"/>
<path d="M2352 2848 c-25 -31 -32 -104 -32 -334 0 -181 3 -244 13 -252 9 -8
11 5 7 61 -7 94 4 447 14 470 10 21 43 40 56 32 16 -10 13 -547 -2 -566 -7 -7
-4 -6 7 4 19 17 20 31 20 293 0 261 -1 276 -19 290 -24 17 -50 18 -64 2z"/>
<path d="M2732 2847 c-7 -8 -11 -113 -13 -296 -1 -268 0 -284 17 -294 17 -9
18 -9 5 7 -12 14 -13 60 -7 272 4 140 9 261 12 269 8 19 43 30 56 17 6 -6 13
-109 16 -244 4 -170 8 -220 14 -183 11 66 -8 433 -23 451 -14 18 -63 18 -77 1z"/>
<path d="M2150 2830 c-19 -19 -20 -33 -20 -284 0 -202 3 -265 13 -269 9 -3 12
52 12 255 0 245 1 260 19 274 11 8 23 14 27 14 19 0 29 -89 31 -270 1 -122 3
-170 7 -127 9 105 -3 367 -19 400 -16 32 -42 35 -70 7z"/>
<path d="M2931 2823 c-23 -49 -28 -166 -17 -357 8 -130 15 -191 23 -193 9 -3
10 4 3 29 -6 18 -10 124 -10 236 -1 176 1 208 17 240 12 24 25 37 38 37 19 0
20 -8 25 -265 5 -251 5 -259 14 -155 13 160 1 413 -20 437 -25 27 -59 23 -73
-9z"/>
<path d="M1972 2831 c-28 -17 -36 -72 -40 -287 -4 -219 1 -264 30 -264 7 0 6
5 -2 15 -9 11 -11 70 -9 233 4 190 6 222 22 246 10 15 24 25 30 23 20 -6 25
-52 27 -247 3 -193 18 -193 19 0 1 191 -31 309 -77 281z"/>
<path d="M3146 2824 c-25 -25 -31 -81 -30 -297 1 -205 1 -208 24 -230 17 -16
20 -17 9 -3 -11 14 -15 61 -17 191 -4 179 7 278 33 304 33 33 40 -1 45 -217 4
-179 6 -196 13 -127 7 77 3 233 -9 303 -12 73 -40 104 -68 76z"/>
<path d="M1757 2792 c-15 -16 -17 -49 -17 -250 0 -218 1 -232 19 -242 25 -13
42 -13 19 1 -16 9 -18 31 -18 223 0 193 2 216 18 237 12 14 25 20 35 16 15 -6
17 -32 18 -234 1 -188 3 -215 11 -153 5 41 6 147 3 235 -5 132 -9 162 -22 173
-24 17 -47 15 -66 -6z"/>
<path d="M3327 2792 c-15 -16 -17 -49 -17 -250 0 -218 1 -232 19 -242 25 -13
42 -13 19 1 -16 9 -18 31 -18 224 0 202 1 216 20 235 49 49 60 11 61 -208 1
-149 3 -168 11 -117 9 59 3 289 -9 323 -18 50 -58 66 -86 34z"/>
<path d="M1560 2770 c-12 -8 -16 -46 -18 -218 -3 -190 -1 -210 14 -216 9 -4
19 -4 22 -1 3 3 0 5 -6 5 -9 0 -12 50 -12 183 0 151 3 186 16 205 10 15 24 22
37 20 21 -3 22 -8 27 -198 5 -177 6 -188 13 -117 12 109 -1 307 -21 330 -17
19 -48 22 -72 7z"/>
<path d="M3521 2766 c-8 -9 -11 -77 -9 -222 3 -200 4 -209 23 -211 11 -2 14 0
8 3 -16 7 -18 365 -3 395 6 11 21 19 36 19 l25 0 -3 -205 c-2 -136 0 -201 7
-194 16 16 11 395 -5 414 -16 19 -64 20 -79 1z"/>
<path d="M1359 2693 c-7 -15 -14 -77 -16 -138 -5 -123 6 -158 47 -162 24 -3
25 -3 3 7 -30 12 -37 45 -31 156 4 72 10 99 23 114 44 49 59 8 53 -149 -2 -69
0 -95 7 -83 15 25 10 214 -7 248 -19 42 -64 46 -79 7z"/>
<path d="M3719 2698 c-7 -13 -15 -71 -17 -130 -3 -60 -8 -108 -13 -108 -5 0
-9 -6 -9 -14 0 -20 49 -56 74 -55 20 2 20 2 -1 6 -31 6 -37 35 -31 154 4 77 9
104 23 119 15 17 41 27 46 18 1 -2 5 -57 9 -123 l8 -120 -2 121 c-1 130 -9
154 -52 154 -14 0 -28 -9 -35 -22z"/>
<path d="M2294 2535 c0 -77 2 -107 3 -67 2 40 2 103 0 140 -2 37 -3 4 -3 -73z"/>
<path d="M2882 2535 c0 -87 3 -130 8 -113 4 15 5 78 1 140 l-8 113 -1 -140z"/>
<path d="M1512 2520 c0 -19 2 -27 5 -17 2 9 2 25 0 35 -3 9 -5 1 -5 -18z"/>
<path d="M3401 2354 c0 -11 3 -14 6 -6 3 7 2 16 -1 19 -3 4 -6 -2 -5 -13z"/>
<path d="M3201 2344 c0 -11 3 -14 6 -6 3 7 2 16 -1 19 -3 4 -6 -2 -5 -13z"/>
<path d="M2021 2334 c0 -11 3 -14 6 -6 3 7 2 16 -1 19 -3 4 -6 -2 -5 -13z"/>
<path d="M2221 2334 c0 -11 3 -14 6 -6 3 7 2 16 -1 19 -3 4 -6 -2 -5 -13z"/>
<path d="M2812 2320 c0 -14 2 -19 5 -12 2 6 2 18 0 25 -3 6 -5 1 -5 -13z"/>
<path d="M823 2270 c-36 -15 -65 -69 -59 -109 6 -40 51 -91 80 -91 19 0 19 1
-3 13 -13 6 -33 23 -43 38 -16 21 -17 30 -8 55 24 62 83 92 141 72 29 -10 35
-21 42 -83 3 -23 4 -20 6 12 2 59 -30 94 -89 99 -25 2 -55 0 -67 -6z"/>
<path d="M4233 2270 c-28 -12 -63 -67 -63 -100 0 -36 35 -88 65 -96 14 -3 29
-4 32 0 4 3 -3 6 -15 6 -11 0 -30 12 -42 27 -28 36 -21 78 20 116 65 59 159
19 146 -63 -4 -24 -3 -30 4 -20 34 52 -32 141 -102 139 -13 0 -33 -4 -45 -9z"/>
<path d="M2368 2243 c7 -3 16 -2 19 1 4 3 -2 6 -13 5 -11 0 -14 -3 -6 -6z"/>
<path d="M4349 2103 c-13 -16 -12 -17 4 -4 16 13 21 21 13 21 -2 0 -10 -8 -17
-17z"/>
<path d="M888 2073 c7 -3 16 -2 19 1 4 3 -2 6 -13 5 -11 0 -14 -3 -6 -6z"/>
<path d="M2147 1852 c-22 -24 -21 -55 1 -76 17 -15 57 -16 423 -13 l404 2
-408 3 c-361 2 -408 4 -414 18 -3 9 3 25 16 37 21 22 25 22 426 22 392 0 405
-1 420 -20 l15 -20 -7 20 c-15 46 -4 45 -443 45 -391 0 -418 -1 -433 -18z"/>
<path d="M625 1550 c3 -246 3 -253 25 -274 l22 -21 -5 35 c-3 19 -10 58 -16
85 -5 28 -10 129 -11 225 0 96 -4 181 -9 189 -5 7 -7 -96 -6 -239z"/>
<path d="M1230 1446 c0 -149 -1 -156 -24 -183 l-24 -28 -236 0 c-129 0 -232
-3 -228 -6 31 -27 381 -42 463 -19 60 17 63 27 69 193 4 128 8 151 22 161 13
8 56 3 175 -22 299 -60 398 -67 1088 -67 l620 0 335 38 c184 20 354 40 378 43
l42 6 0 -131 c0 -122 1 -132 22 -153 21 -21 23 -21 26 -5 2 10 -1 32 -7 49 -6
17 -16 83 -22 147 -7 64 -13 117 -14 119 -1 1 -191 -18 -421 -43 l-419 -46
-615 4 c-673 4 -761 10 -1034 68 -77 16 -152 29 -168 29 l-28 0 0 -154z"/>
</g>
</svg>
