<svg xmlns="http://www.w3.org/2000/svg" viewBox="0 0 169.14 67.26"><defs><style>.cls-1{fill:#231f20;}.cls-2{fill:#fff;}.cls-3{fill:#fdb913;}</style></defs><g id="Layer_2" data-name="Layer 2"><g id="Layer_23" data-name="Layer 23"><rect class="cls-1" width="169.14" height="67.26" rx="2.05"/><path class="cls-2" d="M28.28,20.51a2.64,2.64,0,0,1-2.13-1,5.62,5.62,0,0,1-1-3.09l-1.77.33c0,.25,0,.46,0,.62s0,.26,0,.31a26.2,26.2,0,0,1-.91,5.41,7.19,7.19,0,0,1-1.72,3.06,9,9,0,0,1-3.36,2.24,12.09,12.09,0,0,1-4,.62,9.15,9.15,0,0,1-2.77-.34,5,5,0,0,1-1.67-.83,2.42,2.42,0,0,1-.8-1.08,3.07,3.07,0,0,1-.21-1.06c0-.74.06-1.72.18-2.92s.23-2.46.36-3.79.25-2.64.36-3.93S9,12.7,9,11.78a4.43,4.43,0,0,0-.11-1.1,2.8,2.8,0,0,0-.46-.83L13.06,9c.65.26,1,.91,1,2,0,.47,0,.89,0,1.25s0,.75-.1,1.14-.09.84-.15,1.33-.14,1.11-.23,1.83q-.18,1.65-.3,2.94c-.07.87-.13,1.65-.17,2.35s-.09,1.33-.13,1.91-.07,1.13-.09,1.67a4.09,4.09,0,0,0,.5,2.23,1.5,1.5,0,0,0,1.27.75,2.09,2.09,0,0,0,1.25-.56,5.26,5.26,0,0,0,1.35-2,17.88,17.88,0,0,0,1-4.57c.22-2,.35-4.65.4-7.89,0-.72,0-1.33,0-1.83s-.05-.89-.09-1.19-.1-.54-.16-.8a1,1,0,0,0-.44-.61l4.52-.9A1.94,1.94,0,0,1,23.2,9a7.23,7.23,0,0,1,.3,2.42c0,.13,0,.37,0,.71s0,.74,0,1.2,0,.95,0,1.46,0,1,0,1.42l6.52-1.32a.75.75,0,0,1,.38.61,1,1,0,0,1,0,.15s0,.14-.05.27A4.53,4.53,0,0,0,30,17a3.85,3.85,0,0,0,.24,1.24,5.38,5.38,0,0,0,.87,1.49A7.71,7.71,0,0,1,28.28,20.51Z"/><path class="cls-2" d="M52.72,20.67a4.29,4.29,0,0,1-1.14.16A3,3,0,0,1,49.41,20a4.57,4.57,0,0,1-1-2.87l-1.52.39c.43,1.13.79,2.29,1.11,3.46s.6,2.31.86,3.38c.12.6.24,1.1.34,1.5A8.69,8.69,0,0,0,49.54,27a2.68,2.68,0,0,0,.38.7,2.07,2.07,0,0,0,.52.5l-4.59.9a1,1,0,0,1-.78-.46,2.68,2.68,0,0,1-.49-1.11l-.19-.95c-.08-.44-.18-.94-.3-1.51s-.24-1.17-.38-1.81-.29-1.28-.46-1.9-.31-1.08-.49-1.63-.36-1.09-.55-1.58a12.65,12.65,0,0,0-.59-1.31,5.63,5.63,0,0,0-.52-.87,9.2,9.2,0,0,0-1.34,2,14.45,14.45,0,0,0-1,2.65,20.31,20.31,0,0,0-.62,2.95A14.69,14.69,0,0,0,38,26.48a2.31,2.31,0,0,0,.38,1,1.67,1.67,0,0,0,.76.67l-4.94.87A2,2,0,0,1,33.32,28,4.16,4.16,0,0,1,33,26.29a20.29,20.29,0,0,1,.41-4,24.4,24.4,0,0,1,1.14-4,18.52,18.52,0,0,1,1.74-3.51,8.85,8.85,0,0,1,2.25-2.49c-.11-.22-.22-.47-.34-.77s-.22-.61-.31-.92a4.39,4.39,0,0,1-.19-.93,2,2,0,0,1,.08-.85l4.3-.87A2.34,2.34,0,0,0,42.1,9a4.59,4.59,0,0,0,.39,1,6.86,6.86,0,0,0,.57.9c.21.28.41.52.6.74a13.08,13.08,0,0,1,1.67,2.44A31.51,31.51,0,0,1,46.7,17L53,15.63a.69.69,0,0,1,.38.61.59.59,0,0,1,0,.13,3,3,0,0,1-.08.29,4.63,4.63,0,0,0-.12.61,4.12,4.12,0,0,0,0,.48,2.49,2.49,0,0,0,.22,1,7.45,7.45,0,0,0,.85,1.33A9.94,9.94,0,0,1,52.72,20.67Z"/><path class="cls-2" d="M76.11,18a5.31,5.31,0,0,1-2.22.54,3.27,3.27,0,0,1-2.42-1.22,5.5,5.5,0,0,1-1.25-2.79l-2.31.26-.82,10.88c0,.24,0,.47,0,.69a2.85,2.85,0,0,0,.11.66,2.26,2.26,0,0,0,.32.64,2.45,2.45,0,0,0,.63.61l-4.49.74a2.67,2.67,0,0,1-.94-1.2,5.71,5.71,0,0,1-.3-2l1-10.6-2.57.19a5.5,5.5,0,0,1-.47,1.79,5.42,5.42,0,0,1-.92,1.39,3.9,3.9,0,0,1-1.19.9A2.84,2.84,0,0,1,57,19.8a2.8,2.8,0,0,1-1.55-.54A6.67,6.67,0,0,0,56.2,18a3,3,0,0,0,.25-1,1.07,1.07,0,0,0-.05-.3l-.09-.44c0-.15-.06-.29-.1-.43a1.61,1.61,0,0,1,0-.34c0-.17.11-.28.34-.32l7-.61.19-3.15a8.76,8.76,0,0,0-.14-1.55,1.28,1.28,0,0,0-.75-1l4.91-.93a1.24,1.24,0,0,1,.46.58,1.94,1.94,0,0,1,.08.74l-.35,4.94L75,13.51c.23,0,.35.15.35.32a1.52,1.52,0,0,1-.07.42c0,.17-.08.35-.11.54s-.06.37-.09.53a2.22,2.22,0,0,0,.16,1.43A4.29,4.29,0,0,0,76.11,18Z"/><path class="cls-2" d="M98.1,24.43a10.84,10.84,0,0,1-1.15.42,4.23,4.23,0,0,1-1.09.16A3.4,3.4,0,0,1,93.36,24a4.89,4.89,0,0,1-1.3-2.83l-1.17.26a1.14,1.14,0,0,0-.67.58,3.24,3.24,0,0,0-.35,1c-.06.41-.11,1-.14,1.7s-.06,1.62-.08,2.67l-6,1.44a6.67,6.67,0,0,1-1.49.17A5.82,5.82,0,0,1,80,28.6a2.5,2.5,0,0,1-1.25-1,5.11,5.11,0,0,1-.5-1.35,8,8,0,0,1-.16-1.77,5.92,5.92,0,0,1,.36-1.81,7,7,0,0,1,1.09-2L86,13a11.74,11.74,0,0,0,.73-1.11,2,2,0,0,0,.31-1,4.24,4.24,0,0,0,0-.66,2.08,2.08,0,0,0-.15-.48,1.61,1.61,0,0,0-.26-.4l-.43-.48,5-.93a1.88,1.88,0,0,1,.54.62,3,3,0,0,1,.18,1.21,5.92,5.92,0,0,1-.58,2.49,8.76,8.76,0,0,1-1.12,1.81L84,21.51a4.57,4.57,0,0,0-.92,1.71,6.85,6.85,0,0,0-.28,1.91,3.3,3.3,0,0,0,.57,1.9,1.79,1.79,0,0,0,1.58.83.83.83,0,0,0,.41-.08,1.12,1.12,0,0,0,.32-.24,19.66,19.66,0,0,1,.15-2.61,5.4,5.4,0,0,1,.7-2,4.11,4.11,0,0,1,1.69-1.41,10.13,10.13,0,0,1,3.12-.81l5.51-1.22a.77.77,0,0,1,.25.55,4.75,4.75,0,0,1-.09.61,2.94,2.94,0,0,0-.13.58,3.91,3.91,0,0,0,0,.45,3.43,3.43,0,0,0,.27,1.23A5.89,5.89,0,0,0,98.1,24.43Z"/><path class="cls-3" d="M18.87,55.77V45.67c0-1-.42-1.81-1.52-1.81-.68,0-1.91.35-1.91,2.39v9.52H7.93V33.11h7.51v7.61a6.16,6.16,0,0,1,5-2.3c3.66,0,6,2.2,6,5.95v11.4Z"/><path class="cls-3" d="M42.11,55.77l-1-3.56a6.21,6.21,0,0,1-5.69,3.95c-3.53,0-5.89-2.21-5.89-6.15V38.81H37V48.9c0,1,.25,1.82,1.39,1.82.52,0,1.75-.36,1.75-2.56V38.81h7.5V51.36l.49,4.41Z"/><path class="cls-3" d="M51,55.77V33.11h7.51V55.77Z"/><path class="cls-3" d="M74.47,55.77l-1-3.56a6.22,6.22,0,0,1-5.7,3.95c-3.53,0-5.89-2.21-5.89-6.15V38.81h7.51V48.9c0,1,.26,1.82,1.39,1.82.52,0,1.75-.36,1.75-2.56V38.81H80V51.36l.48,4.41Z"/><path class="cls-3" d="M99.78,48.81c.07.32.13.61.17.9.48,3.76-1.53,6.45-7.61,6.45-4.73,0-7.54-1.36-7.54-6.41V43.43H82V38.81h1.23c2,0,2.39-.78,4.08-5.12h4.59l.46,5.12H98v4.62H92.31V49.2c0,1.45.35,2.1,1.52,2.1.87,0,1.58-1,1.33-3.07a8.23,8.23,0,0,0-.2-1.07Z"/><path class="cls-3" d="M101.56,47.16c0-5.31,3.82-8.74,9.81-8.74,4.76,0,9.52,1.62,9.52,7.86a15.63,15.63,0,0,1-.1,1.62H109.17c-.13,2,1,3.46,2.75,3.46,1.33,0,2.49-.35,2.49-1.68a3.39,3.39,0,0,0-.09-.74l6.24.61a4.79,4.79,0,0,1,.07.75c0,4.4-4.79,5.86-9.23,5.86C105.45,56.16,101.56,53.08,101.56,47.16Zm12-1.72a2.26,2.26,0,0,0,.06-.55c0-1.2-.78-1.91-2.17-1.91a2.33,2.33,0,0,0-2.2,2.46Z"/><path class="cls-3" d="M132.92,47.93a6.29,6.29,0,0,0,.13-.9c.13-1.46-.09-3.17-.93-3.17-.68,0-1,1.1-1,2.42v9.49h-7.5v-17h5.53l1.07,3.56a4.79,4.79,0,0,1,4.89-3.76c3.46,0,4.72,3,4.43,6.28a8.79,8.79,0,0,1-.26,1.59Z"/><path class="cls-3" d="M141,51.46c0-4.17,4-4.46,7.64-5.08,1.62-.29,2.91-.45,2.91-1.94,0-1.23-.61-1.65-1.42-1.65a1.57,1.57,0,0,0-1.49,1.75,2.5,2.5,0,0,0,.13.8l-6.73.33a6.49,6.49,0,0,1-.1-1.13c0-4,3.59-6.12,8.61-6.12,3.88,0,8.29,1.13,8.29,7.18V50c0,.94.51,1.39,1.19,1.39a2.28,2.28,0,0,0,1.23-.39v4.34a11.42,11.42,0,0,1-4.4.78,4.37,4.37,0,0,1-4.24-2.43,3,3,0,0,1-.19-.75c-1.4,2.66-4.11,3.11-6.19,3.11C143.57,56.09,141,54.6,141,51.46Zm10.33-3a4.25,4.25,0,0,1-1.23.55c-.75.23-1.4.45-1.4,1.46a1.14,1.14,0,0,0,1.1,1.19,1.42,1.42,0,0,0,1.53-1.52Z"/></g></g></svg>