<svg xmlns="http://www.w3.org/2000/svg" viewBox="0 0 293.54 119.47"><defs><style>.cls-1{fill:#231f20;}.cls-2{fill:#fff;}.cls-3{isolation:isolate;}.cls-4{fill:#00672f;}.cls-5{fill:#00803e;}.cls-6{fill:#009549;}.cls-7{fill:#998f00;}.cls-8{fill:#c3b500;}.cls-9{fill:#e8d600;}.cls-10{fill:#8d0406;}.cls-11{fill:#b21117;}.cls-12{fill:#d2181f;}</style></defs><g id="Layer_2" data-name="Layer 2"><g id="Layer_23" data-name="Layer 23"><rect class="cls-1" width="293.54" height="119.47" rx="2.05"/><path class="cls-2" d="M50.94,37.19a4.46,4.46,0,0,1-3.59-1.62,9.37,9.37,0,0,1-1.67-5.18l-3,.54c0,.43,0,.78,0,1.05s0,.45,0,.52a44.07,44.07,0,0,1-1.51,9.08,12.29,12.29,0,0,1-2.9,5.15,14.94,14.94,0,0,1-5.63,3.75,20.09,20.09,0,0,1-6.7,1.05A15.93,15.93,0,0,1,21.26,51a8.25,8.25,0,0,1-2.79-1.41,4.17,4.17,0,0,1-1.36-1.8A5.35,5.35,0,0,1,16.77,46c0-1.26.09-2.9.29-4.91s.4-4.13.61-6.36.42-4.43.61-6.61.29-4,.29-5.58a7.17,7.17,0,0,0-.18-1.83,4.39,4.39,0,0,0-.77-1.4l7.76-1.51c1.09.43,1.64,1.52,1.64,3.28,0,.8,0,1.5-.05,2.11s-.09,1.25-.16,1.91-.16,1.41-.26,2.24-.24,1.85-.38,3.07c-.21,1.84-.38,3.48-.5,4.94s-.22,2.77-.29,3.93-.15,2.24-.22,3.21S25,44.38,25,45.28A6.69,6.69,0,0,0,25.86,49,2.48,2.48,0,0,0,28,50.29a3.6,3.6,0,0,0,2.1-.94,8.7,8.7,0,0,0,2.26-3.43A29.67,29.67,0,0,0,34,38.24q.55-5.1.66-13.24c0-1.22,0-2.24,0-3.07s-.09-1.49-.16-2-.16-.91-.26-1.35a1.67,1.67,0,0,0-.75-1L41,16.05a3.23,3.23,0,0,1,1.41,1.81,12,12,0,0,1,.51,4.07c0,.21,0,.61,0,1.18s0,1.25,0,2,0,1.59-.06,2.45,0,1.65-.08,2.37l10.95-2.21a1.23,1.23,0,0,1,.64,1,1.12,1.12,0,0,1,0,.24c0,.09,0,.24-.08.46a7.08,7.08,0,0,0-.31,1.83,6.66,6.66,0,0,0,.39,2.08,8.8,8.8,0,0,0,1.47,2.5A12.77,12.77,0,0,1,50.94,37.19Z"/><path class="cls-2" d="M92,37.46a7.39,7.39,0,0,1-1.91.27,5,5,0,0,1-3.64-1.32q-1.35-1.32-1.67-4.83l-2.56.65q1.07,2.85,1.87,5.82c.53,2,1,3.87,1.43,5.66.21,1,.41,1.85.58,2.54A16.61,16.61,0,0,0,86.63,48a5.44,5.44,0,0,0,.64,1.19,3.9,3.9,0,0,0,.88.83l-7.71,1.51a1.69,1.69,0,0,1-1.3-.78,4.39,4.39,0,0,1-.83-1.86c-.07-.32-.17-.85-.31-1.59s-.31-1.58-.51-2.54-.41-2-.64-3-.48-2.14-.77-3.18-.52-1.82-.82-2.75-.61-1.82-.93-2.65-.65-1.56-1-2.21a10.57,10.57,0,0,0-.88-1.45,15.25,15.25,0,0,0-2.26,3.39,25.57,25.57,0,0,0-1.73,4.45,34.88,34.88,0,0,0-1,5,23.68,23.68,0,0,0-.19,4.94,3.84,3.84,0,0,0,.64,1.72,3,3,0,0,0,1.27,1.14l-8.29,1.45a3.33,3.33,0,0,1-1.49-1.8,7.22,7.22,0,0,1-.58-2.84,35,35,0,0,1,.69-6.74,42.77,42.77,0,0,1,1.91-6.74,32.13,32.13,0,0,1,2.93-5.9,15.15,15.15,0,0,1,3.77-4.18c-.18-.36-.36-.79-.56-1.29s-.37-1-.53-1.54a7.86,7.86,0,0,1-.32-1.56,3.5,3.5,0,0,1,.13-1.43l7.23-1.46a4,4,0,0,0,.08,1.75,7.81,7.81,0,0,0,.67,1.7,11,11,0,0,0,1,1.51c.36.47.69.88,1,1.24a22.34,22.34,0,0,1,2.79,4.1,50.58,50.58,0,0,1,2.32,4.91L92.4,29A1.14,1.14,0,0,1,93,30a.76.76,0,0,1,0,.21c0,.07-.06.24-.13.49a6.18,6.18,0,0,0-.21,1,6,6,0,0,0-.06.81A4.36,4.36,0,0,0,93,34.3a12.37,12.37,0,0,0,1.44,2.24A16.69,16.69,0,0,1,92,37.46Z"/><path class="cls-2" d="M131.25,33a8.82,8.82,0,0,1-3.72.91,5.49,5.49,0,0,1-4.06-2.05,9.06,9.06,0,0,1-2.1-4.69l-3.88.43-1.38,18.28c0,.4,0,.79,0,1.16a4.61,4.61,0,0,0,.19,1.11,3.6,3.6,0,0,0,.53,1.08,4.15,4.15,0,0,0,1.06,1l-7.55,1.24a4.43,4.43,0,0,1-1.56-2,9.37,9.37,0,0,1-.51-3.42l1.7-17.8-4.3.32a9.23,9.23,0,0,1-.8,3A8.8,8.8,0,0,1,103.35,34a6.91,6.91,0,0,1-2,1.51,5,5,0,0,1-2.21.54,4.75,4.75,0,0,1-2.6-.91A11.41,11.41,0,0,0,97.82,33a5.45,5.45,0,0,0,.43-1.65,2.79,2.79,0,0,0-.08-.51c-.06-.24-.11-.48-.16-.73s-.11-.49-.16-.73a2.26,2.26,0,0,1-.08-.56c0-.29.19-.47.58-.54l11.8-1,.32-5.28a14.11,14.11,0,0,0-.24-2.62,2.13,2.13,0,0,0-1.25-1.7l8.24-1.56a2,2,0,0,1,.77,1,2.9,2.9,0,0,1,.13,1.24l-.58,8.31,11.85-1.14c.39.08.59.25.59.54a3.09,3.09,0,0,1-.11.7c-.07.29-.13.6-.18.92s-.11.62-.16.89a3,3,0,0,0-.08.62,4,4,0,0,0,.34,1.78A7.89,7.89,0,0,0,131.25,33Z"/><path class="cls-2" d="M168.19,43.77a18.39,18.39,0,0,1-1.94.7,6.54,6.54,0,0,1-1.83.27,5.72,5.72,0,0,1-4.2-1.78A8.19,8.19,0,0,1,158,38.21l-2,.43a2,2,0,0,0-1.11,1,5.2,5.2,0,0,0-.59,1.73c-.1.68-.18,1.64-.24,2.86s-.09,2.71-.13,4.47L144,51.1a11.6,11.6,0,0,1-2.5.27,10.06,10.06,0,0,1-3.7-.59,4.33,4.33,0,0,1-2.1-1.62,8.76,8.76,0,0,1-.85-2.27,14.37,14.37,0,0,1-.26-3,9.79,9.79,0,0,1,.61-3A11.54,11.54,0,0,1,137,37.51l10.79-12.94A16,16,0,0,0,149,22.71a3.39,3.39,0,0,0,.54-1.59,7,7,0,0,0-.08-1.11,4.3,4.3,0,0,0-.24-.81,3,3,0,0,0-.45-.67c-.2-.22-.44-.48-.72-.81l8.34-1.56a3.15,3.15,0,0,1,.91,1.05,4.74,4.74,0,0,1,.32,2,10.08,10.08,0,0,1-1,4.18,15.13,15.13,0,0,1-1.88,3.05l-10.21,12.4A7.71,7.71,0,0,0,143,41.74a11.47,11.47,0,0,0-.48,3.21,5.48,5.48,0,0,0,1,3.18,3,3,0,0,0,2.66,1.41,1.54,1.54,0,0,0,.69-.14,2.23,2.23,0,0,0,.53-.4,32.85,32.85,0,0,1,.26-4.4,9.07,9.07,0,0,1,1.17-3.37,6.91,6.91,0,0,1,2.85-2.37,17.38,17.38,0,0,1,5.23-1.35l9.25-2a1.34,1.34,0,0,1,.43.92,8.8,8.8,0,0,1-.16,1,6.5,6.5,0,0,0-.22,1,7.6,7.6,0,0,0,0,.76,5.88,5.88,0,0,0,.45,2.08A9.69,9.69,0,0,0,168.19,43.77Z"/><path class="cls-2" d="M38.07,97.84V80.74c0-1.75-.71-3.07-2.58-3.07-1.15,0-3.23.61-3.23,4.06V97.84H19.55V59.48H32.26V72.36a10.4,10.4,0,0,1,8.39-3.89c6.19,0,10.13,3.72,10.13,10.08V97.84Z"/><path class="cls-2" d="M77.41,97.84l-1.75-6A10.53,10.53,0,0,1,66,98.5c-6,0-10-3.73-10-10.41v-19H68.75v17.1c0,1.76.44,3.07,2.36,3.07.88,0,3-.6,3-4.33V69.12H86.78V90.39l.83,7.45Z"/><path class="cls-2" d="M92.48,97.84V59.48h12.71V97.84Z"/><path class="cls-2" d="M132.21,97.84l-1.76-6a10.51,10.51,0,0,1-9.64,6.69c-6,0-10-3.73-10-10.41v-19h12.71v17.1c0,1.76.44,3.07,2.36,3.07.87,0,3-.6,3-4.33V69.12h12.72V90.39l.82,7.45Z"/><path class="cls-2" d="M175.06,86.06c.11.55.22,1,.27,1.53.82,6.36-2.57,10.91-12.88,10.91-8,0-12.76-2.3-12.76-10.85V77h-4.83V69.12H147c3.34,0,4.05-1.31,6.9-8.65h7.78l.77,8.65H172V77H162.4v9.76c0,2.46.6,3.56,2.57,3.56,1.48,0,2.69-1.65,2.25-5.21a11.46,11.46,0,0,0-.33-1.81Z"/><path class="cls-2" d="M178.07,83.26c0-9,6.46-14.79,16.6-14.79,8.06,0,16.11,2.74,16.11,13.31a24.15,24.15,0,0,1-.16,2.74H191c-.22,3.46,1.75,5.87,4.65,5.87,2.25,0,4.22-.61,4.22-2.85a5.24,5.24,0,0,0-.16-1.26l10.58,1a8.31,8.31,0,0,1,.11,1.26c.05,7.45-8.11,9.92-15.62,9.92C184.64,98.5,178.07,93.29,178.07,83.26Zm20.22-2.9a3.84,3.84,0,0,0,.11-.93c0-2-1.32-3.24-3.67-3.24-2.58,0-3.73,2.41-3.73,4.17Z"/><path class="cls-2" d="M231.17,84.58a13.91,13.91,0,0,0,.22-1.54c.22-2.46-.17-5.37-1.59-5.37-1.15,0-1.65,1.87-1.65,4.11V97.84H215.44V69.12h9.37l1.81,6a8.11,8.11,0,0,1,8.27-6.35c5.87,0,8,5.09,7.51,10.63a14.83,14.83,0,0,1-.44,2.68Z"/><path class="cls-2" d="M244.76,90.55c0-7.07,6.79-7.56,12.93-8.6,2.74-.5,4.93-.77,4.93-3.29,0-2.08-1-2.79-2.41-2.79a2.65,2.65,0,0,0-2.52,2.95,4.23,4.23,0,0,0,.22,1.37l-11.4.55a11.79,11.79,0,0,1-.17-1.92c0-6.79,6.09-10.35,14.58-10.35,6.58,0,14,1.91,14,12.16v7.51c0,1.59.88,2.36,2,2.36a3.86,3.86,0,0,0,2.08-.66v7.34a19.22,19.22,0,0,1-7.45,1.32c-2.52,0-5.92-.93-7.18-4.11a5,5,0,0,1-.33-1.26c-2.36,4.49-7,5.26-10.47,5.26C249.19,98.39,244.76,95.87,244.76,90.55Zm17.48-5.15a7.14,7.14,0,0,1-2.09.93c-1.26.39-2.35.77-2.35,2.47a1.92,1.92,0,0,0,1.86,2,2.4,2.4,0,0,0,2.58-2.58Z"/><g class="cls-3"><polygon class="cls-4" points="192.68 51.22 177.07 42.73 177.12 14.09 192.74 22.58 192.68 51.22"/><polygon class="cls-5" points="192.74 22.58 177.12 14.09 203.65 10.36 219.27 18.86 192.74 22.58"/><polygon class="cls-6" points="219.27 18.86 219.21 47.49 192.68 51.22 192.74 22.58 219.27 18.86"/></g><g class="cls-3"><polygon class="cls-7" points="220.27 57.22 204.38 48.57 204.42 22.34 220.32 30.98 220.27 57.22"/><polygon class="cls-8" points="220.32 30.98 204.42 22.34 228.73 18.92 244.63 27.57 220.32 30.98"/><polygon class="cls-9" points="244.63 27.57 244.58 53.8 220.27 57.22 220.32 30.98 244.63 27.57"/></g><g class="cls-3"><polygon class="cls-10" points="246.34 47.22 230.68 38.7 230.74 10.49 246.4 19.01 246.34 47.22"/><polygon class="cls-11" points="246.4 19.01 230.74 10.49 256.86 6.82 272.53 15.34 246.4 19.01"/><polygon class="cls-12" points="272.53 15.34 272.47 43.55 246.34 47.22 246.4 19.01 272.53 15.34"/></g></g></g></svg>