<svg xmlns="http://www.w3.org/2000/svg" viewBox="0 0 260 260"><defs><style>.cls-1{fill:#14ad4b;}.cls-2{fill:#fff;}</style></defs><g id="Layer_2" data-name="Layer 2"><g id="Layer_22" data-name="Layer 22"><rect class="cls-1" width="260" height="260" rx="32.64"/><path class="cls-2" d="M91.51,152.85V105.49c0-4.86-2-8.5-7.13-8.5-3.19,0-9,1.67-9,11.23v44.63H40.2V46.59H75.42V82.26c6.07-7.74,14.88-10.77,23.22-10.77,17.16,0,28.08,10.32,28.08,27.93v53.43Z"/><path class="cls-2" d="M218.71,120.21c.3,1.52.61,2.88.76,4.25,2.28,17.61-7.13,30.21-35.67,30.21-22.16,0-35.37-6.38-35.37-30.06V95H135.07V73.31h5.77c9.26,0,11.24-3.64,19.13-24h21.55l2.13,24h26.71V95H183.65v27c0,6.83,1.67,9.87,7.13,9.87,4.1,0,7.44-4.56,6.22-14.42a34.33,34.33,0,0,0-.91-5Z"/><path class="cls-2" d="M79,195.8a5.48,5.48,0,0,1-4.41-2q-1.66-2-2-6.35l-3.66.66q0,.8,0,1.29t0,.63A55,55,0,0,1,67,201.19a15,15,0,0,1-3.56,6.32,18.5,18.5,0,0,1-6.92,4.61,24.53,24.53,0,0,1-8.22,1.29,19.41,19.41,0,0,1-5.71-.7A10.1,10.1,0,0,1,39.14,211a5.1,5.1,0,0,1-1.67-2.22,6.59,6.59,0,0,1-.42-2.18c0-1.55.12-3.55.36-6s.49-5.07.75-7.81.51-5.44.75-8.11.36-4.95.36-6.85a8.66,8.66,0,0,0-.23-2.25,5.25,5.25,0,0,0-.95-1.72L47.62,172q2,.79,2,4,0,1.45-.06,2.58c0,.76-.11,1.54-.2,2.35s-.19,1.74-.33,2.75-.28,2.28-.45,3.78q-.39,3.38-.62,6c-.15,1.79-.27,3.4-.36,4.84s-.18,2.74-.26,3.93-.15,2.34-.2,3.45a8.26,8.26,0,0,0,1.05,4.6,3.07,3.07,0,0,0,2.61,1.55,4.33,4.33,0,0,0,2.57-1.16,10.66,10.66,0,0,0,2.78-4.2,36.88,36.88,0,0,0,2-9.43c.45-4.17.73-9.59.81-16.25q0-2.25-.06-3.78c0-1-.11-1.83-.2-2.45s-.19-1.12-.32-1.65a2,2,0,0,0-.92-1.26l9.33-1.85a3.93,3.93,0,0,1,1.73,2.21,14.83,14.83,0,0,1,.62,5c0,.27,0,.75,0,1.46s0,1.53-.07,2.48,0,1.95-.06,3-.06,2-.1,2.92l13.44-2.72a1.51,1.51,0,0,1,.79,1.26,1.13,1.13,0,0,1,0,.3c0,.11,0,.3-.09.56a8.47,8.47,0,0,0-.4,2.25,8.14,8.14,0,0,0,.49,2.55,10.86,10.86,0,0,0,1.8,3.08A15.81,15.81,0,0,1,79,195.8Z"/><path class="cls-2" d="M129.38,196.13a9.17,9.17,0,0,1-2.35.33,6.14,6.14,0,0,1-4.47-1.62q-1.66-1.62-2-5.93l-3.14.8c.87,2.34,1.64,4.72,2.29,7.15s1.24,4.74,1.76,6.95c.26,1.23.5,2.27.72,3.11a16.72,16.72,0,0,0,.68,2.15,6.17,6.17,0,0,0,.79,1.46,5,5,0,0,0,1.07,1l-9.46,1.86a2.07,2.07,0,0,1-1.6-1,5.25,5.25,0,0,1-1-2.29q-.14-.6-.39-1.95c-.18-.9-.38-1.94-.62-3.11s-.5-2.42-.78-3.74-.6-2.63-.95-3.91c-.31-1.1-.64-2.23-1-3.37s-.75-2.23-1.14-3.25a29.65,29.65,0,0,0-1.21-2.71,11.82,11.82,0,0,0-1.08-1.79,18.75,18.75,0,0,0-2.77,4.17,30.82,30.82,0,0,0-2.12,5.46,41.89,41.89,0,0,0-1.27,6.09,29.7,29.7,0,0,0-.23,6.06,4.8,4.8,0,0,0,.78,2.12,3.69,3.69,0,0,0,1.57,1.39l-10.18,1.79a4.12,4.12,0,0,1-1.83-2.22,8.82,8.82,0,0,1-.72-3.48,43.17,43.17,0,0,1,.85-8.27,52.21,52.21,0,0,1,2.35-8.28,39.49,39.49,0,0,1,3.59-7.25,18.78,18.78,0,0,1,4.63-5.13c-.22-.44-.44-1-.68-1.59s-.46-1.24-.66-1.88a10.9,10.9,0,0,1-.39-1.92,4.22,4.22,0,0,1,.17-1.76l8.87-1.78a4.76,4.76,0,0,0,.1,2.15,9.55,9.55,0,0,0,.81,2.08,13.63,13.63,0,0,0,1.18,1.86c.43.57.85,1.08,1.24,1.52a27.72,27.72,0,0,1,3.42,5,63.06,63.06,0,0,1,2.84,6l12.92-2.78a1.42,1.42,0,0,1,.79,1.26,1.26,1.26,0,0,1,0,.27c0,.09-.07.28-.16.59a9.15,9.15,0,0,0-.26,1.26,7,7,0,0,0-.07,1,5.29,5.29,0,0,0,.46,2.15,15,15,0,0,0,1.76,2.75A20,20,0,0,1,129.38,196.13Z"/><path class="cls-2" d="M177.6,190.7a10.82,10.82,0,0,1-4.57,1.12,6.76,6.76,0,0,1-5-2.51,11.19,11.19,0,0,1-2.57-5.76l-4.77.53L159,206.52c0,.49,0,1,0,1.42a5.61,5.61,0,0,0,.23,1.36,4.66,4.66,0,0,0,.65,1.33,5,5,0,0,0,1.3,1.25L152,213.41a5.51,5.51,0,0,1-1.93-2.49,11.63,11.63,0,0,1-.62-4.2l2.09-21.85-5.28.4a11.56,11.56,0,0,1-1,3.67,11,11,0,0,1-1.9,2.88,8.38,8.38,0,0,1-2.44,1.86,6.08,6.08,0,0,1-2.71.66,5.79,5.79,0,0,1-3.2-1.13,13.66,13.66,0,0,0,1.57-2.61,6.48,6.48,0,0,0,.52-2,3,3,0,0,0-.1-.63c-.06-.28-.13-.58-.19-.89s-.13-.61-.2-.9a3.56,3.56,0,0,1-.1-.69q0-.53.72-.66l14.49-1.26.39-6.49a17,17,0,0,0-.3-3.21,2.57,2.57,0,0,0-1.53-2.08l10.12-1.92a2.55,2.55,0,0,1,.94,1.19,3.69,3.69,0,0,1,.16,1.52l-.71,10.19,14.55-1.39c.48.09.72.31.72.67a4.27,4.27,0,0,1-.13.86c-.09.35-.17.73-.23,1.12s-.13.76-.2,1.1a4.8,4.8,0,0,0-.1.76,4.91,4.91,0,0,0,.43,2.18A9.42,9.42,0,0,0,177.6,190.7Z"/><path class="cls-2" d="M223,203.87a19.19,19.19,0,0,1-2.38.86,8.06,8.06,0,0,1-2.25.33,7,7,0,0,1-5.16-2.18,10.13,10.13,0,0,1-2.67-5.83l-2.42.53a2.44,2.44,0,0,0-1.37,1.2,6.48,6.48,0,0,0-.71,2.11,35,35,0,0,0-.3,3.51c-.06,1.5-.12,3.34-.16,5.5l-12.33,3a14.29,14.29,0,0,1-3.07.33,12.29,12.29,0,0,1-4.54-.73,5.23,5.23,0,0,1-2.57-2,10.75,10.75,0,0,1-1.05-2.78,17.54,17.54,0,0,1-.32-3.64,12.12,12.12,0,0,1,.75-3.74,13.94,13.94,0,0,1,2.25-4.14l13.25-15.88a22.45,22.45,0,0,0,1.5-2.29,4.23,4.23,0,0,0,.65-2,7.64,7.64,0,0,0-.1-1.36,4.44,4.44,0,0,0-.29-1,3.28,3.28,0,0,0-.56-.83l-.88-1L208.47,170a3.82,3.82,0,0,1,1.11,1.29,5.78,5.78,0,0,1,.39,2.48,12.32,12.32,0,0,1-1.21,5.13,17.46,17.46,0,0,1-2.32,3.74l-12.53,15.23a9.31,9.31,0,0,0-1.89,3.54,14.14,14.14,0,0,0-.58,3.94,6.8,6.8,0,0,0,1.17,3.91,3.75,3.75,0,0,0,3.26,1.72,1.89,1.89,0,0,0,.85-.17,2.36,2.36,0,0,0,.65-.5,38.23,38.23,0,0,1,.33-5.39,11.08,11.08,0,0,1,1.43-4.14,8.51,8.51,0,0,1,3.5-2.91,21.44,21.44,0,0,1,6.42-1.66l11.36-2.51a1.62,1.62,0,0,1,.52,1.12,9.36,9.36,0,0,1-.2,1.26,7.14,7.14,0,0,0-.32,2.12,7.12,7.12,0,0,0,.55,2.55A11.58,11.58,0,0,0,223,203.87Z"/></g></g></svg>