<svg viewBox="0 0 96 96" xmlns="http://www.w3.org/2000/svg" xmlns:xlink="http://www.w3.org/1999/xlink" id="Icons_Convertible_M" overflow="hidden"><g id="Icons"><path d="M21.505 50C17.3629 50 14.005 53.3579 14.005 57.5 14.005 61.6421 17.3629 65 21.505 65 25.6471 65 29.005 61.6421 29.005 57.5 29.0006 53.3597 25.6453 50.0044 21.505 50ZM21.505 63C18.4674 63 16.005 60.5376 16.005 57.5 16.005 54.4624 18.4674 52 21.505 52 24.5426 52 27.005 54.4624 27.005 57.5 27.0017 60.5362 24.5412 62.9967 21.505 63Z" fill="#333F50"/><path d="M30.96 58.384C30.8978 59.0634 30.7616 59.7341 30.554 60.384L66.454 60.384C66.2472 59.7339 66.1114 59.0633 66.049 58.384Z" fill="#333F50"/><path d="M92.717 51.232C92.2711 50.8949 91.8491 50.5273 91.454 50.132 89.98 48.451 87.605 45.805 85.005 44.563 78.044 41.234 67.005 40.385 67.005 40.385L61.886 39.74C56.6036 36.4698 51.0965 33.5772 45.406 31.084 44.8933 30.8786 44.3112 31.1278 44.1059 31.6405 43.9094 32.131 44.1285 32.6897 44.606 32.916 48.822 34.7627 52.9368 36.8323 56.933 39.116L56.005 39 53.962 39C52.8812 39 52.005 39.8762 52.005 40.957L40.442 40.957C40.209 40.9572 39.9766 40.9347 39.748 40.89L39.005 40.745 35.005 39.97 35.005 37C35.005 36.4477 34.5573 36 34.005 36 33.4527 36 33.005 36.4477 33.005 37L33.005 39.582 25.25 38.207C24.0553 38.006 22.8331 38.0365 21.65 38.297 20.622 38.526 19.573 38.827 19.001 38.997 15.408 40.087 6.373 43.232 3.784 44.997 1.831 46.329 2.968 54.148 2.968 54.148L2.005 55.361 1.978 56.167C1.94012 57.3016 2.70242 58.3076 3.805 58.578L4.865 58.84C6.50064 59.1617 8.15982 59.3493 9.826 59.401L12.226 59.536C12.0792 58.874 12.0041 58.1981 12.002 57.52L9.888 57.4C8.3474 57.3521 6.81314 57.1805 5.3 56.887L4.284 56.635C4.10272 56.5883 3.97808 56.4221 3.984 56.235L3.989 56.089 4.541 55.389 5.078 54.713 4.954 53.858C4.513 50.822 4.548 47.417 5.021 46.579 7.403 45.035 15.714 42.079 19.577 40.912 20.221 40.721 21.177 40.45 22.087 40.248 23.0207 40.0426 23.9853 40.0188 24.928 40.178L38.628 42.706 39.372 42.851C39.7286 42.919 40.091 42.9525 40.454 42.951L54.005 42.951 54.005 41 55.879 41 66.755 42.369 66.803 42.375 66.851 42.375C66.958 42.383 77.594 43.232 84.143 46.364 86.466 47.474 88.819 50.157 89.95 51.447L89.993 51.496 90.04 51.542C90.4934 51.9964 90.9775 52.4191 91.489 52.807 91.8136 53.057 92.0041 53.4433 92.005 53.853L92.005 57.169 84.988 57.169C84.988 57.278 85.005 57.386 85.005 57.496 85.0021 58.0572 84.9496 58.6171 84.848 59.169L94.005 59.169 94.005 53.857C94.0023 52.8305 93.5272 51.8623 92.717 51.232Z" fill="#333F50"/><path d="M75.505 50C71.3629 50 68.005 53.3579 68.005 57.5 68.005 61.6421 71.3629 65 75.505 65 79.6471 65 83.005 61.6421 83.005 57.5 83.0006 53.3597 79.6453 50.0044 75.505 50ZM75.505 63C72.4674 63 70.005 60.5376 70.005 57.5 70.005 54.4624 72.4674 52 75.505 52 78.5426 52 81.005 54.4624 81.005 57.5 81.0017 60.5362 78.5412 62.9967 75.505 63Z" fill="#333F50"/></g></svg>