<svg viewBox="0 0 96 96" xmlns="http://www.w3.org/2000/svg" xmlns:xlink="http://www.w3.org/1999/xlink" id="Icons_Radio_M" overflow="hidden"><g id="Icons"><path d="M83 32 78.2 32 30.945 12.543C31.104 11.675 31.022 10.717 29.234 9.443 28.8526 9.15668 28.3889 9.0013 27.912 9 26.2558 9.04781 24.952 10.4292 24.9998 12.0853 25.0392 13.4479 25.9922 14.6127 27.32 14.921 28.2387 15.1356 29.2046 14.8989 29.92 14.284L72.9 31.981C72.926 31.991 72.924 32 72.9 32L13 32C10.2386 32 8 34.2386 8 37L8 83C8 85.7614 10.2386 88 13 88L83 88C85.7614 88 88 85.7614 88 83L88 37C88 34.2386 85.7614 32 83 32ZM86 83C86 84.6569 84.6569 86 83 86L13 86C11.3431 86 10 84.6569 10 83L10 37C10 35.3431 11.3431 34 13 34L83 34C84.6569 34 86 35.3431 86 37Z" stroke-width="3" fill="#333F50"/><path d="M16 54 80 54 80 40 16 40ZM18 42 78 42 78 52 18 52Z" stroke-width="3" fill="#333F50"/><path d="M26 60C20.4772 60 16 64.4771 16 70 16 75.5229 20.4772 80 26 80 31.5228 80 36 75.5229 36 70 35.9939 64.4797 31.5203 60.0061 26 60ZM26 78C21.5817 78 18 74.4183 18 70 18 65.5817 21.5817 62 26 62 30.4183 62 34 65.5817 34 70 33.995 74.4162 30.4162 77.995 26 78Z" stroke-width="3" fill="#333F50"/><circle cx="26" cy="70" r="2" stroke-width="3" fill="#333F50"/><rect x="44" y="61" width="36" height="2" stroke-width="3" fill="#333F50"/><rect x="44" y="69" width="36" height="2" stroke-width="3" fill="#333F50"/><rect x="44" y="77" width="36" height="2" stroke-width="3" fill="#333F50"/></g></svg>