<svg viewBox="0 0 96 96" xmlns="http://www.w3.org/2000/svg" xmlns:xlink="http://www.w3.org/1999/xlink" id="Icons_TableAndChairs_M" overflow="hidden"><g id="Icons"><path d="M9.985 75 12.01 75 13.153 67 31 67 31 75 33 75 33 55 36 55C36.5523 55 37 54.5523 37 54 37 53.4477 36.5523 53 36 53L14.905 53 12 23.9C11.9448 23.3505 11.4545 22.9498 10.905 23.005 10.3555 23.0602 9.95477 23.5505 10.01 24.1L12.998 53.979ZM14.868 55 31 55 31 65 13.439 65Z" fill="#D9D9D9"/><path d="M25 42 47 42 47 73 39 73C38.4477 73 38 73.4477 38 74 38 74.5523 38.4477 75 39 75L57 75C57.5523 75 58 74.5523 58 74 58 73.4477 57.5523 73 57 73L49 73 49 42 71 42C71.5523 42 72 41.5523 72 41 72 40.4477 71.5523 40 71 40L25 40C24.4477 40 24 40.4477 24 41 24 41.5523 24.4477 42 25 42Z" fill="#D9D9D9"/><path d="M59 54C59 54.5523 59.4477 55 60 55L63 55 63 75 65 75 65 67 82.847 67 83.99 75 86.009 75 83.009 53.979 86 24.1C86.0552 23.5505 85.6545 23.0602 85.105 23.005 84.5555 22.9498 84.0652 23.3505 84.01 23.9L81.1 53 60 53C59.4477 53 59 53.4477 59 54ZM65 55 81.133 55 82.561 65 65 65Z" fill="#D9D9D9"/></g></svg>