<svg xmlns="http://www.w3.org/2000/svg" xmlns:xlink="http://www.w3.org/1999/xlink" viewBox="0 0 566.93 566.93"><defs><style>.cls-1{isolation:isolate;}.cls-2,.cls-4{mix-blend-mode:darken;}.cls-2{fill:url(#radial-gradient);}.cls-3{fill:#d1d3d4;}.cls-4{stroke:#27aae1;stroke-miterlimit:10;fill:url(#radial-gradient-2);}.cls-5{opacity:0.1;font-size:39px;fill:#231f20;}.cls-5,.cls-6{font-family:BebasNeue-Regular, Bebas Neue;}.cls-6{font-size:54.22px;fill:#262262;}.cls-7{letter-spacing:0em;}.cls-8{letter-spacing:-0.03em;}.cls-9{letter-spacing:0em;}</style><radialGradient id="radial-gradient" cx="283.46" cy="283.46" r="283.46" gradientUnits="userSpaceOnUse"><stop offset="0" stop-color="#fff"/><stop offset="0.6" stop-color="#c7c9cb"/><stop offset="0.71" stop-color="#bcbec0"/></radialGradient><radialGradient id="radial-gradient-2" cx="283.46" cy="283.46" r="183.1" gradientUnits="userSpaceOnUse"><stop offset="0" stop-color="#2484c6"/><stop offset="0.02" stop-color="#2484c6" stop-opacity="0.97"/><stop offset="0.38" stop-color="#2484c6" stop-opacity="0.56"/><stop offset="0.67" stop-color="#2484c6" stop-opacity="0.26"/><stop offset="0.89" stop-color="#2484c6" stop-opacity="0.07"/><stop offset="1" stop-color="#2484c6" stop-opacity="0"/></radialGradient></defs><g class="cls-1"><g id="Layer_2" data-name="Layer 2"><rect class="cls-2" width="566.93" height="566.93"/><path class="cls-3" d="M566.93,561.55q-1-4-2.1-7.95t-2.11-7.79c-.7-2.58-1.4-5.12-2.1-7.65s-1.4-5-2.1-7.5-1.4-4.94-2.1-7.38-1.4-4.86-2.11-7.27-1.4-4.79-2.1-7.16-1.4-4.72-2.1-7.06-1.4-4.67-2.1-7-1.4-4.62-2.11-6.92c-9.15,2.67-18.31,4.87-27.47,6.67q-1,3.68-2.1,7.3c-.7,2.41-1.41,4.8-2.11,7.17s-1.4,4.71-2.1,7-1.4,4.63-2.1,6.92-1.4,4.54-2.1,6.79-1.41,4.46-2.11,6.66-1.4,4.38-2.1,6.54-1.4,4.29-2.1,6.41-1.4,4.22-2.1,6.29-1.41,4.14-2.11,6.17l18.81-.05q.94-3.22,1.89-6.52t1.8-6.36q11.54-.54,23.05-1.3v-.2l1.84,7q.91,3.6,1.85,7.23l20.29-.11h0Zm-41.61-33.61,1.79-7.14,1.79-7.26c.6-2.44,1.19-4.91,1.79-7.39.15-.64.31-1.28.46-1.92l.37-.07c.16.58.31,1.16.47,1.73l1.83,6.78,1.83,6.81,1.83,6.86c.61,2.3,1.21,4.61,1.82,6.92l1.26,4.78q-9.13.94-18.26,1.66.62-2.36,1.23-4.74Z"/><path class="cls-3" d="M47.3,476.77v28.46q-10.87,1.39-21.76,3.29V472.75q-10.14,2.78-20.28,6.31v82.47l20.28-.1V521.19q10.89-1.5,21.76-2.58v42.73l20.29-.05v-97.1q-10.14,1.38-20.29,3.41Z"/><path class="cls-3" d="M122.91,470.53V538a16.3,16.3,0,0,1-.21,2.63c-.86,5.32-4.51,7.33-10.12,7.34s-9.26-2-10.12-7.26a15.12,15.12,0,0,1-.21-2.62V461.14q-10.14.42-20.29,1.38v74.77a34.27,34.27,0,0,0,.23,3.73,24.16,24.16,0,0,0,3.28,10.05c3,4.88,7.88,8.35,14.63,10.17a50.45,50.45,0,0,0,24.22,0c6.74-1.83,11.64-5.34,14.63-10.29a25,25,0,0,0,3.28-10.2,35.41,35.41,0,0,0,.22-3.78V461.33q-9.76-.46-19.54-.54Z"/><path class="cls-3" d="M260.46,485.14v57.1a11.24,11.24,0,0,1-.2,2.18c-.87,4.38-4.52,6-10.12,5.8s-9.26-2-10.13-6.66a12.55,12.55,0,0,1-.2-2.3V473.07q-10.14-1.74-20.29-3.34v69.58a27.5,27.5,0,0,0,.23,3.45,21.35,21.35,0,0,0,3.28,9.36c3,4.54,7.88,7.7,14.62,9.31a52.6,52.6,0,0,0,12.12,1.28,56.31,56.31,0,0,0,12.11-1.21c6.74-1.49,11.63-4.27,14.62-8.16a16.83,16.83,0,0,0,3.29-8.06,22.55,22.55,0,0,0,.22-3v-62q-9.76-1.8-19.55-3.58Z"/><path class="cls-3" d="M289,490v3.42q10.6,1.71,21.21,3.41v64.85l20.28.06V499.91q10.61,1.59,21.21,3V492.85c-20.9-3.2-41.8-7-62.7-10.87Z"/><path class="cls-3" d="M361.51,501.24v60.54q27.66.08,55.32.1v-8.43q-17.52-.19-35-.57v-19.6q13.92.83,27.85,1.36v-8.91q-13.92-.66-27.85-1.73V506.54c11.68,1.21,23.36,2.18,35,2.82v-9.21c-18.44-1.14-36.88-3.23-55.32-5.86Z"/><path class="cls-3" d="M177.11,541.39V464.06Q167,463,156.83,462.21v99q26.83,0,53.67.11V547.81q-16.69-.43-33.39-.76Z"/><path class="cls-3" d="M488.75,554.54V543.8a1,1,0,0,0,0-.17,13.19,13.19,0,0,0-1.37-6.13c-1.53-2.87-4.49-4.83-9.46-5.78-.83-.16-1.67-.32-2.62-.43v-.17c5.28-1.24,8.88-3.3,11-6.09a11.21,11.21,0,0,0,2.23-6.53c0-.18.05-.36.05-.55v-4a15,15,0,0,0-.13-1.92,10,10,0,0,0-3.15-6.2c-4.28-4-12.9-5.3-26.78-4.9q-15,.39-30.06-.23v61.14h20.28V536.67l7,0c4.76,0,8,.37,10,1.57s2.72,2.93,2.72,5.63V554.7c0,.49,0,.93,0,1.35.14,3.62.83,4.49,1.82,5.83l20.66,0a8.45,8.45,0,0,1-2.19-6C488.75,555.42,488.75,555,488.75,554.54Zm-40-34.49v-9.84c3.08,0,6.15,0,9.23-.11,5.41-.13,8.52.86,9.73,3.3a6.32,6.32,0,0,1,.6,2.86v4.84a5.39,5.39,0,0,1-2.62,4.87c-2.09,1.34-5.37,1.9-9.56,2q-3.69,0-7.38.05v-7.93Z"/><path class="cls-3" d="M47.3,381v27q-10.87,3.21-21.76,7.57V381Q15.4,385.66,5.26,391.61v73.6q10.14-4,20.28-7.16V427.81q10.89-4.12,21.76-7.11v31.51q10.16-2.31,20.29-3.86V366.53q-10.14,2.34-20.29,5.75Z"/><path class="cls-3" d="M122.91,369.84v62.64a14.25,14.25,0,0,1-.21,2.45c-.86,4.95-4.51,6.78-10.12,6.88s-9.26-1.57-10.12-6.47a13,13,0,0,1-.21-2.43V361.39q-10.14.72-20.29,2.33v69.81a29.73,29.73,0,0,0,.23,3.47,19.88,19.88,0,0,0,3.28,9.1A374.62,374.62,0,0,1,139,444.93a21.29,21.29,0,0,0,3.28-9.36,30.47,30.47,0,0,0,.22-3.51V361.72q-9.76-.8-19.54-.92Z"/><path class="cls-3" d="M260.46,395.94V452a10.36,10.36,0,0,1-.2,2.11c-.87,4.15-4.52,5-10.12,3.89s-9.26-3.55-10.13-8.22a12.34,12.34,0,0,1-.2-2.26v-66q-10.14-2.94-20.29-5.63v66.55a26,26,0,0,0,.23,3.34,23.15,23.15,0,0,0,3.28,9.49c17.82,3.22,35.65,6.9,53.47,10.63a13.73,13.73,0,0,0,3.29-7.42,21.59,21.59,0,0,0,.22-3V393.72q-9.76-3-19.55-6Z"/><path class="cls-3" d="M289,404.55V408q10.6,3.16,21.21,6.27v58.66q10.14,2.07,20.28,4V420q10.61,2.91,21.21,5.55V414.85c-20.9-5.38-41.8-11.81-62.7-18.31Z"/><path class="cls-3" d="M361.51,424.7v57.76c18.44,3,36.88,5.35,55.32,6.65v-2.83c-11.68-.85-23.36-2.13-35-3.74V461.21c9.28,1.51,18.57,2.78,27.85,3.74V455.1c-9.28-1-18.57-2.37-27.85-4v-19c11.68,2.23,23.36,4,35,5.19V427.17a424.81,424.81,0,0,1-55.32-9.89Z"/><path class="cls-3" d="M458.5,428.56a266.83,266.83,0,0,1-30.06-.39v61.61q10.14.47,20.28.43V468.42q3.51,0,7-.11c4.76-.14,8,.22,10,1.49s2.72,3.15,2.72,6.16V488.1c0,.55,0,1,0,1.5q10.15-.59,20.29-1.8c0-.46,0-.93,0-1.43V474.51a1.37,1.37,0,0,0,0-.19,15,15,0,0,0-1.37-6.64c-1.53-3-4.49-4.95-9.46-5.7-.83-.12-1.67-.25-2.62-.32v-.19c5.28-1.67,8.88-4.22,11-7.46a14,14,0,0,0,2.23-7.35c0-.2.05-.4.05-.61v-4.34a17.67,17.67,0,0,0-.13-2.1,10.6,10.6,0,0,0-3.15-6.61C481,428.86,472.38,427.9,458.5,428.56Zm9.78,16.73v5.37a6.43,6.43,0,0,1-2.62,5.51c-2.09,1.56-5.37,2.29-9.56,2.42-2.46.07-4.92.12-7.38.13v-19.8c3.08,0,6.15-.09,9.23-.22,5.41-.23,8.52.76,9.73,3.43A7.55,7.55,0,0,1,468.28,445.29Z"/><path class="cls-3" d="M554.31,433.46l-2.1-6.78-2.1-6.75L548,413.2q-1.05-3.36-2.11-6.71a218.32,218.32,0,0,1-27.47,11.23q-1,4.06-2.1,8.07c-.7,2.67-1.41,5.33-2.11,8s-1.4,5.25-2.1,7.85-1.4,5.18-2.1,7.74-1.4,5.1-2.1,7.62-1.41,5-2.11,7.52-1.4,4.95-2.1,7.39-1.4,4.88-2.1,7.29-1.4,4.79-2.1,7.16q9.28-1.44,18.59-3.49.9-3.56,1.8-7.17Q531.44,472.87,543,469v-.22q.91,3.39,1.84,6.79,10-3.26,20-7.35-1.05-3.57-2.11-7.1c-.7-2.35-1.4-4.68-2.1-7s-1.4-4.64-2.1-6.94l-2.1-6.88Q555.37,436.87,554.31,433.46Zm-13.75,26.2q-9.13,3.22-18.26,5.7.62-2.62,1.23-5.28l1.79-7.8,1.79-7.9c.59-2.65,1.19-5.31,1.79-8s1.19-5.39,1.79-8.1c.15-.7.31-1.4.46-2.1l.37-.15c.16.59.31,1.17.47,1.75l1.83,6.8,1.83,6.79,1.83,6.8c.61,2.27,1.21,4.54,1.82,6.81Z"/><path class="cls-3" d="M177.11,438.88V366.31q-10.14-1.83-20.28-3.11v82.91c17.89,1.5,35.78,4,53.67,7v-3.86c-11.13-1.93-22.26-3.63-33.39-5Z"/><path class="cls-3" d="M305,338v47.65q10.14,3.27,20.29,6.39V340.56c7.07,2.39,14.14,4.71,21.21,6.89V336.19c-20.91-6.54-41.81-14.21-62.71-21.88v11.51q10.61,3.85,21.21,7.66Z"/><path class="cls-3" d="M20.29,358.46V346A206.93,206.93,0,0,1,42.05,335.7V357a204.21,204.21,0,0,1,20.29-6.64V282.4a189.93,189.93,0,0,0-20.29,7.44v33.83a205.51,205.51,0,0,0-21.76,10.55V300.85A227,227,0,0,0,0,314.19v64.49a231.18,231.18,0,0,1,20.29-11.91Z"/><path class="cls-3" d="M137.2,340.22V274.78q-9.78-.73-19.55-.65v66.52a12.37,12.37,0,0,1-.21,2.28c6.51-.06,13,.14,19.53.56A24.56,24.56,0,0,0,137.2,340.22Z"/><path class="cls-3" d="M97,341.74v-66.4a192.89,192.89,0,0,0-20.28,3.32v65a25.16,25.16,0,0,0,.22,3.21Q87.07,345,97.2,344A11.87,11.87,0,0,1,97,341.74Z"/><path class="cls-3" d="M171.86,339V279.56c-6.76-1.33-13.53-2.45-20.29-3.32v68.57q10.14,1.17,20.29,3Z"/><path class="cls-3" d="M234.55,361v-64.2q-10.14-3.39-20.29-6.47v63.89a26.4,26.4,0,0,0,.23,3.23q10.14,2.73,20.27,5.78A12.15,12.15,0,0,1,234.55,361Z"/><path class="cls-3" d="M274.76,372.81V311q-9.78-3.57-19.55-7.07v63.46a9.68,9.68,0,0,1-.21,2.06q9.76,3.1,19.53,6.31A21,21,0,0,0,274.76,372.81Z"/><path class="cls-3" d="M376.54,398.42V387.11c9.28,2.17,18.56,4,27.84,5.47V381.83c-9.28-1.49-18.56-3.38-27.84-5.59V355.85a355.21,355.21,0,0,0,35,6.87V351.63a392.74,392.74,0,0,1-55.33-12.47V401q10.14,2.67,20.29,4.93Z"/><path class="cls-3" d="M443.47,407.12v-9.47c2.33,0,4.67,0,7,0,4.76-.07,8,.36,10,1.76s2.72,3.47,2.72,6.77v7.72q10.16-.69,20.29-2.31v-7.14c0-.07,0-.14,0-.21a17.12,17.12,0,0,0-1.38-7.18c-1.52-3.28-4.48-5.33-9.45-6.15-.84-.13-1.67-.28-2.63-.35v-.21c5.29-1.81,8.89-4.6,11-8.12a16.23,16.23,0,0,0,2.24-8c0-.23.05-.44.05-.67v-4.7a18.61,18.61,0,0,0-.14-2.28,11.94,11.94,0,0,0-3.14-7.18c-4.28-4.52-12.91-5.7-26.79-5.27A236.06,236.06,0,0,1,423.18,353v60.31c6.76.6,13.53,1,20.29,1.07Zm0-29.83v-12c3.07,0,6.15,0,9.22,0,5.42-.15,8.53,1,9.74,3.92a9.11,9.11,0,0,1,.59,3.45v5.87a7.2,7.2,0,0,1-2.61,6c-2.1,1.67-5.38,2.44-9.56,2.5q-3.69.06-7.38,0v-9.71Z"/><path class="cls-3" d="M555.37,377.89l-2.11-6.67-2.1-6.68-2.1-6.68-2.1-6.7c-.7-2.24-1.41-4.48-2.11-6.72l-2.1-6.76c-.7-2.25-1.4-4.52-2.1-6.79a197,197,0,0,1-27.48,12.26q-1,4.31-2.1,8.57T509,360.2q-1.05,4.21-2.1,8.39t-2.11,8.3q-1,4.13-2.1,8.2l-2.1,8.1q-1.05,4-2.1,8c-.71,2.65-1.41,5.29-2.11,7.9a211,211,0,0,0,61.12-24.52Zm-35.31,1.52q.9-4.17,1.79-8.39t1.79-8.46c.6-2.84,1.2-5.68,1.79-8.54.16-.74.31-1.48.46-2.22l.37-.16c.16.61.32,1.21.47,1.81l1.83,7,1.83,7,1.83,6.93,1.83,6.89c.42,1.58.83,3.15,1.25,4.72q-9.13,4.2-18.26,7.38.62-2.8,1.23-5.64C518.87,385,519.46,382.19,520.06,379.41Z"/><path class="cls-3" d="M77.76,213.9v48a189.7,189.7,0,0,1,20.29-3.23V202.92a194.67,194.67,0,0,0-20.29,3.18Z"/><path class="cls-3" d="M118.7,209.59v48c6.52,0,13,.23,19.55.74V202.55c-6.52-.5-13-.76-19.55-.73Z"/><path class="cls-3" d="M152.62,211.85v48c6.76.9,13.53,2.06,20.29,3.42V207.43c-6.76-1.34-13.53-2.48-20.29-3.37Z"/><path class="cls-3" d="M215.32,226.09v48.15q10.14,3.12,20.28,6.58V224.67q-10.14-3.39-20.28-6.46Z"/><path class="cls-3" d="M256.26,239.79v48.28q9.78,3.53,19.55,7.16V238.85q-9.78-3.57-19.55-7Z"/><path class="cls-3" d="M306,274.15v32.24q10.14,3.69,20.29,7.22v-45c7.07,2.42,14.14,4.76,21.21,7V263.83c-20.91-6.46-41.81-14.06-62.71-21.69v11.52q10.6,3.91,21.21,7.77v12.72Z"/><path class="cls-3" d="M377.59,296.91V284a343.84,343.84,0,0,0,35,6.85V279a388.9,388.9,0,0,1-55.33-12.23V323.6q10.14,3,20.29,5.54v-12c9.28,2.31,18.56,4.29,27.84,5.82V311.44c-9.28-1.53-18.56-3.51-27.84-5.82v-8.71Z"/><path class="cls-3" d="M43.1,273a189.39,189.39,0,0,1,20.29-7.38V209.74A190.43,190.43,0,0,0,43.1,217v32.34a199.28,199.28,0,0,0-21.76,11V227.78a227,227,0,0,0-20.29,13.1v56.41A225.81,225.81,0,0,1,21.34,284V271.84a199.28,199.28,0,0,1,21.76-11V273Z"/><path class="cls-3" d="M484.53,335.13a19.76,19.76,0,0,0-1.37-7.71c-1.53-3.51-4.49-5.69-9.46-6.54a24.67,24.67,0,0,0-2.62-.37v-.23c5.28-2,8.88-5,11-8.77a18.47,18.47,0,0,0,2.24-8.56c0-.24.05-.46.05-.71v-5a23.81,23.81,0,0,0-.13-2.44,13.36,13.36,0,0,0-3.15-7.71c-4.28-4.87-12.91-6.2-26.79-5.71a235.94,235.94,0,0,1-30.06-1v57.06q10.14,1,20.29,1.12V328.29c2.34,0,4.67,0,7,0,4.76-.1,8,.34,10,1.85s2.73,3.73,2.73,7.29v.46A193.23,193.23,0,0,0,484.53,335.13Zm-40-28.82V293.36c3.07,0,6.15,0,9.22-.08,5.42-.18,8.53,1,9.74,4.2a10.3,10.3,0,0,1,.59,3.72v6.32a8.07,8.07,0,0,1-2.61,6.48c-2.1,1.82-5.38,2.65-9.56,2.75q-3.69.08-7.38,0V306.31Z"/><path class="cls-3" d="M554.31,298.77c-.7-2.22-1.4-4.46-2.1-6.7l-2.1-6.76q-1.05-3.39-2.1-6.81c-.7-2.28-1.4-4.58-2.11-6.88s-1.4-4.61-2.1-6.94-1.4-4.66-2.1-7a199.1,199.1,0,0,1-27.48,12.38l-2.1,9c-.7,3-1.4,6-2.1,8.95s-1.4,5.94-2.1,8.88-1.4,5.89-2.11,8.81-1.4,5.84-2.1,8.73-1.4,5.78-2.1,8.65-1.4,5.73-2.1,8.57a197.84,197.84,0,0,0,56.91-26.22Q555.37,302.11,554.31,298.77ZM518.09,323l1.23-6q.9-4.37,1.79-8.76c.6-2.93,1.2-5.88,1.79-8.83s1.2-5.92,1.79-8.89,1.2-6,1.8-8.95c.15-.77.3-1.54.46-2.31l.37-.16c.15.63.31,1.26.47,1.89.61,2.45,1.21,4.88,1.82,7.31s1.22,4.84,1.83,7.24,1.22,4.8,1.83,7.18,1.22,4.76,1.83,7.13c.42,1.62.83,3.24,1.25,4.85A195,195,0,0,1,518.09,323Z"/><path class="cls-3" d="M348.59,205.51V197c-20.9-5.66-41.81-12.33-62.71-19v11.54q10.61,3.53,21.21,7v37.45c6.76,2.37,13.53,4.7,20.29,6.94V202.9c7.07,2.18,14.14,4.28,21.21,6.25Z"/><path class="cls-3" d="M378.64,230.24V216.71c11.68,2.56,23.36,4.65,35,6.07V210.17a428,428,0,0,1-55.33-10.63v50.9c6.76,1.91,13.53,3.69,20.29,5.29v-4.22c9.28,2.19,18.56,4,27.85,5.48V244.76c-9.29-1.4-18.57-3.22-27.85-5.36v-9.16Z"/><path class="cls-3" d="M483.12,244.41a20.21,20.21,0,0,0,2.24-9c0-.26.05-.5.05-.75V229.3c0-.9-.05-1.76-.13-2.59a15,15,0,0,0-3.15-8.24c-4.28-5.25-12.91-6.88-26.78-6.39a264.85,264.85,0,0,1-30.07-.76v52.23q10.16.92,20.29,1v-2.43c2.34,0,4.67,0,7-.06,4.76-.12,8,.35,10,2a202.15,202.15,0,0,0,21.63-2.69c-1.53-3.75-4.49-6.11-9.46-7.07a24,24,0,0,0-2.62-.41v-.25C477.41,251.55,481,248.39,483.12,244.41Zm-37.55-5.73V224.89c3.07,0,6.15,0,9.22-.11,5.42-.19,8.53,1.14,9.74,4.5a11.67,11.67,0,0,1,.59,4V240c0,3.1-.92,5.33-2.61,6.88-2.1,1.93-5.37,2.81-9.56,2.92q-3.69.09-7.38.07V238.68Z"/><path class="cls-3" d="M64.44,186.28V148.79a209.92,209.92,0,0,0-20.29,6.27v31a206,206,0,0,0-21.76,10.15V164.42q-10.14,5-20.29,11.4V224a227.39,227.39,0,0,1,20.29-12.68V207.4a204.25,204.25,0,0,1,21.76-10.35v3.88a193.43,193.43,0,0,1,20.29-7Z"/><path class="cls-3" d="M139.3,179.71V142.8q-9.78-.7-19.55-.71v44.4q9.78,0,19.55.8Z"/><path class="cls-3" d="M99.1,179.89V143q-10.16.89-20.29,2.7v44.81a196.61,196.61,0,0,1,20.29-3Z"/><path class="cls-3" d="M174,184.55V147.21q-10.14-1.8-20.29-3v44.64c6.77.9,13.53,2,20.29,3.37Z"/><path class="cls-3" d="M236.66,201.38V162.52q-10.16-3-20.29-5.72v46.06c6.76,2,13.52,4.15,20.29,6.37Z"/><path class="cls-3" d="M276.86,215.13V175q-9.78-3.14-19.55-6.21v47.42q9.78,3.4,19.55,6.92Z"/><path class="cls-3" d="M522.16,242c.6-3,1.2-6.08,1.79-9.13s1.2-6.1,1.8-9.17,1.19-6.13,1.79-9.2c.15-.79.3-1.58.46-2.37l.37-.15c.15.66.31,1.32.47,2q.92,3.85,1.83,7.66t1.82,7.58q.91,3.76,1.83,7.49t1.83,7.41a213.57,213.57,0,0,0,19.22-10.79c-.7-2.27-1.41-4.56-2.11-6.87s-1.4-4.62-2.1-6.95-1.4-4.67-2.1-7-1.4-4.74-2.1-7.13-1.41-4.8-2.11-7.22-1.4-4.87-2.1-7.33a212.35,212.35,0,0,1-27.47,11.07q-1.06,4.68-2.11,9.33l-2.1,9.28q-1.05,4.63-2.1,9.24l-2.1,9.18q-1.06,4.57-2.11,9.12l-2.1,9.06q8.85-2.51,17.71-6Q521.27,246.54,522.16,242Z"/><path class="cls-3" d="M305.22,142.78v24.83q10.14,3,20.28,5.93V143.26q10.61,2.66,21.21,5.09V135.82c-20.9-4.46-41.8-9.71-62.7-15v11.53c7.07,1.89,14.14,3.79,21.21,5.65Z"/><path class="cls-3" d="M62.56,127.38V98.93Q52.42,101,42.27,104v29.86a226.71,226.71,0,0,0-21.76,8.84V111.51q-10.14,4-20.28,9.1v40.28a223.64,223.64,0,0,1,62.33-26.26Z"/><path class="cls-3" d="M137.42,121.33V93.78q-9.76-.51-19.54-.46v34.51q9.77-.08,19.54.55Z"/><path class="cls-3" d="M97.22,121.75V94.14q-10.14.75-20.29,2.25v35.15q10.16-1.83,20.29-2.73Z"/><path class="cls-3" d="M172.08,125.19V97.07q-10.14-1.38-20.28-2.28V129.6q10.14,1.1,20.28,2.76Z"/><path class="cls-3" d="M234.78,139V108.86q-10.14-2.33-20.29-4.43v36.85q10.14,2.53,20.29,5.37Z"/><path class="cls-3" d="M275,150.47V118.6q-9.76-2.46-19.55-4.85v38.83q9.78,2.89,19.55,5.87Z"/><path class="cls-3" d="M404.61,182.82c-9.28-1.24-18.57-2.83-27.85-4.68V154.53c11.68,2.12,23.36,3.85,35,5.05V146.36a550.62,550.62,0,0,1-55.32-8.51v43.93a480.14,480.14,0,0,0,48.13,9.39Z"/><path class="cls-3" d="M470.25,192.42v-.25c5.28-2,8.88-5.17,11-9.26a21.34,21.34,0,0,0,2.23-9.38c0-.27,0-.52,0-.79v-5.6c0-.95,0-1.86-.13-2.73a17,17,0,0,0-3.15-8.81c-4.28-5.69-12.9-7.83-26.78-7.53-10,.2-20-.08-30.06-.76v45.94a267.94,267.94,0,0,0,49.46-.31A25.84,25.84,0,0,0,470.25,192.42Zm-19.18-4.69q-3.69,0-7.38,0V161.46q4.62,0,9.22,0c5.42-.11,8.53,1.37,9.74,4.94a13.23,13.23,0,0,1,.6,4.18v7.09c0,3.26-.93,5.58-2.62,7.18C458.54,186.8,455.26,187.67,451.07,187.73Z"/><path class="cls-3" d="M522.08,173.48q.88-4.66,1.79-9.34c.6-3.12,1.19-6.24,1.79-9.36.15-.8.31-1.6.46-2.4l.37-.13c.16.71.31,1.41.47,2.11q.91,4.06,1.83,8.09c.61,2.69,1.22,5.35,1.83,8s1.22,5.28,1.83,7.9q9.46-3.79,18.94-8.62c-.7-2.42-1.41-4.85-2.11-7.3s-1.4-4.93-2.1-7.42-1.4-5-2.1-7.53-1.4-5.07-2.1-7.64l-2.11-7.77a249.71,249.71,0,0,1-27.47,8.41L511.3,150c-.7,3.17-1.41,6.34-2.11,9.5l-2.1,9.47-2.1,9.44-2.1,9.39q8.7-2.12,17.4-5Q521.17,178.15,522.08,173.48Z"/><path class="cls-3" d="M306.27,93v16.76q10.14,2.23,20.28,4.38V91.84q10.6,1.88,21.21,3.58V82.56c-20.9-3-41.8-6.44-62.7-9.93V84.18q10.6,2,21.21,4Z"/><path class="cls-3" d="M63.61,78V57.71Q53.47,59.08,43.32,61V89.31q10.16-2.64,20.29-4.47Z"/><path class="cls-3" d="M21.56,88.42V66C14.8,67.72,8,69.7,1.28,71.94V104Q11.42,99.51,21.56,96Z"/><path class="cls-3" d="M138.48,73.85V54.46q-9.78-.36-19.55-.34V80q9.76,0,19.55.46Z"/><path class="cls-3" d="M98.27,74V54.61c-6.76.32-13.52.79-20.28,1.45V82.6q10.14-1.32,20.28-1.95Z"/><path class="cls-3" d="M173.13,76.7v-20q-10.14-.93-20.28-1.55V81.39c6.76.55,13.52,1.26,20.28,2.09Z"/><path class="cls-3" d="M276,95V71.12q-9.76-1.64-19.54-3.23V98.57q9.76,2.15,19.54,4.36Z"/><path class="cls-3" d="M235.83,86.73V64.62q-10.14-1.56-20.29-3V90.16q10.14,1.89,20.29,4Z"/><path class="cls-3" d="M377.81,114.32V99.75c11.68,1.48,23.36,2.68,35,3.51V89.49c-18.44-1.16-36.88-3.14-55.32-5.59v36.27q10.14,1.83,20.28,3.36Z"/><path class="cls-3" d="M444.74,119.66V104.51c3.08,0,6.15,0,9.23-.05,5.41-.09,8.53,1.51,9.73,5.24a14.16,14.16,0,0,1,.6,4.37v7.39c0,3.4-.93,5.81-2.62,7.46q10.32-.43,20.62-1.53a22.48,22.48,0,0,0,2.24-9.67c0-.28,0-.54,0-.82v-5.82c0-1-.05-1.93-.13-2.84A18.58,18.58,0,0,0,481.3,99c-4.28-6.07-12.9-8.64-26.78-8.41-10,.15-20,0-30.06-.45v38.45q10.14.58,20.28.67Z"/><path class="cls-3" d="M524.92,110.59c.6-3.15,1.19-6.29,1.79-9.43.15-.81.31-1.62.46-2.43l.37-.09c.16.74.31,1.47.47,2.2q.91,4.27,1.83,8.47c.61,2.81,1.22,5.59,1.83,8.36q9.33-2.73,18.67-6.22-1.07-3.84-2.11-7.75t-2.1-7.88q-1.05-4-2.1-8t-2.1-8.15q-13.74,3.43-27.48,5.69L512.35,95l-2.1,9.64q-1.06,4.81-2.11,9.63l-2.1,9.61q8.55-1.64,17.09-3.84C523.73,116.88,524.32,113.73,524.92,110.59Z"/><path class="cls-3" d="M307.32,51v8.47q10.14,1.34,20.28,2.6V48.17q10.61,1,21.21,2V37c-20.9-1.41-41.8-3.08-62.7-4.76V43.85l21.21,2.25Z"/><path class="cls-3" d="M64.66,37.83V24.94q-10.14.64-20.28,1.57V47q10.14-1.55,20.28-2.61Z"/><path class="cls-3" d="M22.61,43.5V28.84Q12.47,30.1,2.33,31.68V55.62Q12.47,53,22.61,50.87Z"/><path class="cls-3" d="M139.53,35.68V23.46q-9.78-.18-19.55-.18v18.3q9.77,0,19.55.31Z"/><path class="cls-3" d="M99.32,35.73V23.49q-10.14.23-20.28.67v18.9q10.14-.77,20.28-1.12Z"/><path class="cls-3" d="M174.19,37.29V24.57q-10.16-.45-20.29-.76V42.47Q164,43,174.19,43.74Z"/><path class="cls-3" d="M277.08,47.43V31.54L257.54,30V52.78l19.54,2.6Z"/><path class="cls-3" d="M236.88,42.88V28.41q-10.14-.75-20.29-1.43V47.75q10.16,1.14,20.29,2.4Z"/><path class="cls-3" d="M378.86,58.07V52.6q17.52,1.24,35,1.95V40.32c-18.44-.54-36.88-1.48-55.32-2.65v28q10.14,1.08,20.28,2Z"/><path class="cls-3" d="M445.8,60.94V55.22c3.07,0,6.14,0,9.22,0,5.41-.06,8.53,1.65,9.74,5.53a15.44,15.44,0,0,1,.59,4.52v5.38q10.11-.31,20.24-1c0-.28,0-.54,0-.84v-6c0-1-.05-2-.13-2.94a20.37,20.37,0,0,0-3.14-9.69c-4.28-6.42-12.91-9.44-26.79-9.32q-15,.14-30.06-.18V70.53q10.14.33,20.29.36Z"/><path class="cls-3" d="M527.76,55.53c.16-.81.31-1.62.46-2.43l.37-.05c.16.77.32,1.53.47,2.29q.91,4.44,1.83,8.81,9.2-1.59,18.39-3.61-1-4.07-2.1-8.21T545.08,44Q544,39.73,543,35.43q-13.74,1.68-27.48,2.78l-2.1,9.69-2.1,9.71c-.7,3.24-1.41,6.48-2.11,9.72q8.4-1,16.78-2.36Q526.87,60.25,527.76,55.53Z"/><path class="cls-3" d="M64.66,6V-.19H44.38V13.07q10.14-.46,20.28-.8Z"/><path class="cls-3" d="M22.61,7V-.19H2.33V15.74q10.14-.81,20.28-1.46Z"/><path class="cls-3" d="M139.53,5.63V-.19H120v11.6q9.77,0,19.55.1Z"/><path class="cls-3" d="M99.32,5.63V-.19H79V11.87q10.14-.24,20.28-.35Z"/><path class="cls-3" d="M174.19,5.92V-.19H153.9V11.69q10.14.15,20.29.39Z"/><path class="cls-3" d="M277.08,7.74V-.19H257.54V14.87l19.54.8Z"/><path class="cls-3" d="M236.88,6.92V-.19H216.59V13.32q10.16.35,20.29.73Z"/><path class="cls-3" d="M307.32,16.91q10.14.42,20.28.81V12.61q10.61.3,21.21.56V-.19h-62.7v11.6l21.21.62Z"/><path class="cls-3" d="M378.86,13.85q17.52.35,35,.55V-.19H358.58v19q10.14.33,20.28.61Z"/><path class="cls-3" d="M445.8,14.58c3.07,0,6.14,0,9.22,0,5.41,0,8.53,1.8,9.74,5.8q10.37-.09,20.74-.32A22,22,0,0,0,482.36,10C478.08,3.26,469.45-.19,455.57-.19H425.51V20.34q10.14.11,20.29.11Z"/><path class="cls-3" d="M528.22,16.12l.37,0c.16.79.32,1.58.47,2.37q9.06-.46,18.12-1.07-1-4.32-2.1-8.71T543-.19H515.5q-1.05,4.85-2.1,9.72l-2.1,9.74q8.22-.32,16.46-.73C527.92,17.73,528.07,16.92,528.22,16.12Z"/></g><g id="Layer_1" data-name="Layer 1"><path class="cls-4" d="M425.23,167.58a183,183,0,0,0-141.77-67.21c-114.47,0-204.41,105-178.67,224,13.4,61.92,75.82,124.35,137.73,137.75,119,25.77,224.05-64.18,224.05-178.66A182.23,182.23,0,0,0,425.23,167.58ZM137,282.77c.37-80,65.84-145.44,145.81-145.79a145.92,145.92,0,0,1,69.74,17.28A18.72,18.72,0,0,1,357,184L184,357a18.72,18.72,0,0,1-29.75-4.46A145.82,145.82,0,0,1,137,282.77ZM284.16,429.94a146,146,0,0,1-69.79-17.29,18.73,18.73,0,0,1-4.46-29.75l173-173a18.72,18.72,0,0,1,29.75,4.47,145.92,145.92,0,0,1,17.28,69.74C429.59,364.1,364.13,429.56,284.16,429.94Z"/><text class="cls-5" transform="translate(242.29 342.84) rotate(-45)">HULUTERA</text></g><g id="English"><text class="cls-6" transform="translate(199.43 272.58)">No im<tspan class="cls-7" x="93.1" y="0">a</tspan><tspan x="114.73" y="0">ge </tspan><tspan class="cls-8" x="-4.07" y="65.07">av</tspan><tspan x="35.35" y="65.07">ai</tspan><tspan class="cls-9" x="67.5" y="65.07">l</tspan><tspan x="86.37" y="65.07">able</tspan></text></g></g></svg>