<svg width="258" height="258" xmlns="http://www.w3.org/2000/svg" xmlns:xlink="http://www.w3.org/1999/xlink" overflow="hidden"><defs><clipPath id="clip0"><path d="M602 363 860 363 860 621 602 621Z" fill-rule="evenodd" clip-rule="evenodd"/></clipPath><clipPath id="clip1"><path d="M603 364 860 364 860 621 603 621Z" fill-rule="evenodd" clip-rule="evenodd"/></clipPath><clipPath id="clip2"><path d="M603 364 860 364 860 621 603 621Z" fill-rule="evenodd" clip-rule="evenodd"/></clipPath><clipPath id="clip3"><path d="M603 364 860 364 860 621 603 621Z" fill-rule="evenodd" clip-rule="evenodd"/></clipPath><clipPath id="clip4"><path d="M603 364 860 364 860 621 603 621Z" fill-rule="evenodd" clip-rule="evenodd"/></clipPath><clipPath id="clip5"><path d="M603 364 860 364 860 621 603 621Z" fill-rule="evenodd" clip-rule="evenodd"/></clipPath><clipPath id="clip6"><path d="M603 364 860 364 860 621 603 621Z" fill-rule="evenodd" clip-rule="evenodd"/></clipPath></defs><g clip-path="url(#clip0)" transform="translate(-602 -363)"><g clip-path="url(#clip1)"><g clip-path="url(#clip2)"><g clip-path="url(#clip3)"><path d="M793.073 374.641 669.927 374.641C666.974 374.652 664.583 377.043 664.573 379.996L664.573 604.938C664.582 607.891 666.974 610.283 669.927 610.292L793.073 610.292C796.026 610.281 798.417 607.89 798.427 604.938L798.427 379.998C798.417 377.045 796.026 374.653 793.073 374.641ZM793.073 379.996 793.073 379.996 793.073 401.412 669.927 401.412 669.927 379.996ZM793.073 406.766 793.073 578.1 669.927 578.1 669.927 406.766ZM669.927 604.938 669.927 583.451 793.073 583.451 793.073 604.938Z" fill="#7F7F7F"/><path d="M718.115 393.378 744.885 393.378C746.364 393.378 747.563 392.18 747.563 390.701 747.563 389.223 746.364 388.024 744.885 388.024L718.115 388.024C716.636 388.024 715.438 389.223 715.438 390.701 715.438 392.18 716.636 393.378 718.115 393.378Z" fill="#7F7F7F"/><path d="M686.113 449.667C689.375 449.67 692.018 452.313 692.021 455.575L692.021 512.559C692.027 518.156 696.56 522.691 702.156 522.7 699.789 524.77 699.548 528.367 701.618 530.735 703.688 533.103 707.285 533.344 709.652 531.274 712.02 529.204 712.261 525.607 710.191 523.239 710.024 523.048 709.844 522.867 709.652 522.7L754.228 522.7C751.858 524.766 751.611 528.363 753.677 530.734 755.743 533.105 759.34 533.352 761.711 531.285 764.082 529.219 764.328 525.622 762.262 523.252 762.091 523.055 761.907 522.871 761.711 522.7L768.979 522.7C770.458 522.7 771.656 521.502 771.656 520.023 771.656 518.545 770.458 517.346 768.979 517.346L702.165 517.346C699.521 517.341 697.38 515.2 697.375 512.557L697.375 507.738 771.544 500.264 771.544 457.698 697.389 457.698 697.389 455.575C697.383 449.352 692.336 444.311 686.113 444.313L685.99 444.313C684.539 444.318 683.368 445.498 683.374 446.949 683.374 446.963 683.374 446.976 683.374 446.99 683.403 448.48 684.622 449.671 686.113 449.667ZM748.665 485.162 733.674 485.162 733.674 475.792 748.665 475.792ZM752.681 475.792 766.19 475.792 766.19 485.162 752.681 485.162ZM733.674 489.178 748.665 489.178 748.665 497.209 733.674 498.716ZM729.658 499.11 714.819 500.604 714.819 489.178 729.658 489.178ZM733.674 471.769 733.674 463.052 748.665 463.052 748.665 471.769ZM729.658 471.769 714.83 471.769 714.83 463.052 729.669 463.052ZM729.658 475.784 729.658 485.154 714.83 485.154 714.83 475.784ZM710.803 485.154 697.365 485.154 697.365 475.784 710.803 475.784ZM697.365 489.17 710.803 489.17 710.803 501 697.365 502.352ZM752.681 496.783 752.681 489.178 766.19 489.178 766.19 495.445ZM766.19 471.758 752.681 471.758 752.681 463.052 766.19 463.052ZM710.814 463.052 710.814 471.769 697.375 471.769 697.375 463.052Z" fill="#7F7F7F"/></g></g></g><g clip-path="url(#clip4)"><g clip-path="url(#clip5)"><g clip-path="url(#clip6)"><path d="M793.073 374.641 669.927 374.641C666.974 374.652 664.583 377.043 664.573 379.996L664.573 604.938C664.582 607.891 666.974 610.283 669.927 610.292L793.073 610.292C796.026 610.281 798.417 607.89 798.427 604.938L798.427 379.998C798.417 377.045 796.026 374.653 793.073 374.641ZM793.073 379.996 793.073 379.996 793.073 401.412 669.927 401.412 669.927 379.996ZM793.073 406.766 793.073 578.1 669.927 578.1 669.927 406.766ZM669.927 604.938 669.927 583.451 793.073 583.451 793.073 604.938Z" fill="#7F7F7F"/><path d="M718.115 393.378 744.885 393.378C746.364 393.378 747.563 392.18 747.563 390.701 747.563 389.223 746.364 388.024 744.885 388.024L718.115 388.024C716.636 388.024 715.438 389.223 715.438 390.701 715.438 392.18 716.636 393.378 718.115 393.378Z" fill="#7F7F7F"/><path d="M686.113 449.667C689.375 449.67 692.018 452.313 692.021 455.575L692.021 512.559C692.027 518.156 696.56 522.691 702.156 522.7 699.789 524.77 699.548 528.367 701.618 530.735 703.688 533.103 707.285 533.344 709.652 531.274 712.02 529.204 712.261 525.607 710.191 523.239 710.024 523.048 709.844 522.867 709.652 522.7L754.228 522.7C751.858 524.766 751.611 528.363 753.677 530.734 755.743 533.105 759.34 533.352 761.711 531.285 764.082 529.219 764.328 525.622 762.262 523.252 762.091 523.055 761.907 522.871 761.711 522.7L768.979 522.7C770.458 522.7 771.656 521.502 771.656 520.023 771.656 518.545 770.458 517.346 768.979 517.346L702.165 517.346C699.521 517.341 697.38 515.2 697.375 512.557L697.375 507.738 771.544 500.264 771.544 457.698 697.389 457.698 697.389 455.575C697.383 449.352 692.336 444.311 686.113 444.313L685.99 444.313C684.539 444.318 683.368 445.498 683.374 446.949 683.374 446.963 683.374 446.976 683.374 446.99 683.403 448.48 684.622 449.671 686.113 449.667ZM748.665 485.162 733.674 485.162 733.674 475.792 748.665 475.792ZM752.681 475.792 766.19 475.792 766.19 485.162 752.681 485.162ZM733.674 489.178 748.665 489.178 748.665 497.209 733.674 498.716ZM729.658 499.11 714.819 500.604 714.819 489.178 729.658 489.178ZM733.674 471.769 733.674 463.052 748.665 463.052 748.665 471.769ZM729.658 471.769 714.83 471.769 714.83 463.052 729.669 463.052ZM729.658 475.784 729.658 485.154 714.83 485.154 714.83 475.784ZM710.803 485.154 697.365 485.154 697.365 475.784 710.803 475.784ZM697.365 489.17 710.803 489.17 710.803 501 697.365 502.352ZM752.681 496.783 752.681 489.178 766.19 489.178 766.19 495.445ZM766.19 471.758 752.681 471.758 752.681 463.052 766.19 463.052ZM710.814 463.052 710.814 471.769 697.375 471.769 697.375 463.052Z" fill="#7F7F7F"/></g></g></g></g></svg>