<svg viewBox="0 0 96 96" xmlns="http://www.w3.org/2000/svg" xmlns:xlink="http://www.w3.org/1999/xlink" id="Icons_Ecommerce_M" overflow="hidden"><g id="Icons"><path d="M71 3.975 25 3.975C23.897 3.97884 23.0038 4.87203 23 5.975L23 90C23.0033 91.1032 23.8968 91.9967 25 92L71 92C72.103 91.9962 72.9962 91.103 73 90L73 5.976C72.9962 4.87286 72.1031 3.97939 71 3.975ZM71 5.975 71 5.975 71 13.975 25 13.975 25 5.975ZM71 15.975 71 79.975 25 79.975 25 15.975ZM25 90 25 81.974 71 81.974 71 90Z"/><path d="M43 10.974 53 10.974C53.5523 10.974 54 10.5263 54 9.974 54 9.42171 53.5523 8.974 53 8.974L43 8.974C42.4477 8.974 42 9.42171 42 9.974 42 10.5263 42.4477 10.974 43 10.974Z"/><path d="M31.046 32C32.2644 32.0011 33.2519 32.9886 33.253 34.207L33.253 55.493C33.2552 57.5834 34.9486 59.2777 37.039 59.281 36.1546 60.0542 36.0645 61.3979 36.8377 62.2823 37.6109 63.1667 38.9546 63.2568 39.839 62.4836 40.7234 61.7104 40.8135 60.3667 40.0403 59.4823 39.9778 59.4108 39.9105 59.3435 39.839 59.281L56.49 59.281C55.6044 60.0528 55.5122 61.3964 56.284 62.282 57.0558 63.1675 58.3994 63.2598 59.285 62.4879 60.1706 61.7161 60.2628 60.3725 59.491 59.487 59.4271 59.4137 59.3583 59.3449 59.285 59.281L62 59.281C62.5523 59.281 63 58.8333 63 58.281 63 57.7287 62.5523 57.281 62 57.281L37.042 57.281C36.0546 57.2793 35.2547 56.4794 35.253 55.492L35.253 53.692 62.958 50.9 62.958 35 35.258 35 35.258 34.207C35.2558 31.8825 33.3705 29.9994 31.046 30L31 30C30.4582 30.0021 30.0207 30.443 30.0228 30.9848 30.0228 30.9899 30.0229 30.9949 30.023 31 30.0339 31.5567 30.4892 32.0017 31.046 32ZM54.412 45.259 48.812 45.259 48.812 41.759 54.412 41.759ZM55.912 41.759 60.958 41.759 60.958 45.259 55.912 45.259ZM48.812 46.759 54.412 46.759 54.412 49.759 48.812 50.322ZM47.312 50.469 41.769 51.027 41.769 46.759 47.312 46.759ZM48.812 40.256 48.812 37 54.412 37 54.412 40.256ZM47.312 40.256 41.773 40.256 41.773 37 47.316 37ZM47.312 41.756 47.312 45.256 41.773 45.256 41.773 41.756ZM40.269 45.256 35.249 45.256 35.249 41.756 40.269 41.756ZM35.249 46.756 40.269 46.756 40.269 51.175 35.249 51.68ZM55.912 49.6 55.912 46.759 60.958 46.759 60.958 49.1ZM60.958 40.252 55.912 40.252 55.912 37 60.958 37ZM40.273 37 40.273 40.256 35.253 40.256 35.253 37Z"/></g></svg>