<?xml version="1.0" standalone="no"?>
<!DOCTYPE svg PUBLIC "-//W3C//DTD SVG 20010904//EN"
 "http://www.w3.org/TR/2001/REC-SVG-20010904/DTD/svg10.dtd">
<svg version="1.0" xmlns="http://www.w3.org/2000/svg"
 width="1000.000000pt" height="1080.000000pt" viewBox="0 0 1000.000000 1080.000000"
 preserveAspectRatio="xMidYMid meet">

<g transform="translate(0.000000,1080.000000) scale(0.100000,-0.100000)"
fill="#000000" stroke="none">
<path d="M3391 9328 c-87 -224 -126 -310 -168 -365 -27 -37 -49 -42 -58 -14
-9 29 -85 101 -124 118 -43 19 -76 10 -97 -26 -34 -58 -108 -75 -237 -56 -26
4 -67 2 -94 -4 -48 -12 -48 -12 -66 -74 -10 -34 -23 -105 -29 -157 -10 -100
-46 -225 -77 -269 -56 -80 -98 -221 -110 -364 -4 -53 -10 -100 -13 -103 -4 -3
-37 -10 -75 -16 -182 -28 -215 -52 -308 -219 -86 -155 -139 -240 -183 -289
-55 -63 -61 -77 -99 -235 -34 -135 -46 -212 -60 -358 -5 -59 -9 -71 -36 -93
-33 -28 -64 -26 -127 7 -19 11 -42 19 -51 19 -31 0 -84 -28 -116 -62 -49 -50
-64 -114 -61 -255 l3 -119 -47 -100 c-82 -173 -83 -174 -83 -553 l0 -333 -38
-33 c-44 -38 -81 -43 -277 -35 -189 8 -180 14 -272 -165 -42 -82 -77 -159 -77
-171 -2 -47 100 -96 260 -125 135 -24 172 -40 263 -111 71 -55 83 -71 110
-148 21 -61 141 -181 213 -216 37 -17 64 -39 85 -69 17 -24 50 -57 73 -74 39
-28 46 -40 80 -138 21 -60 53 -144 72 -188 19 -44 40 -108 47 -141 18 -88 62
-170 128 -234 31 -30 60 -68 63 -83 4 -15 8 -27 9 -28 0 -1 50 -4 110 -8 l108
-7 40 -43 41 -43 -9 -66 c-19 -156 3 -241 88 -329 61 -62 121 -80 318 -93 179
-13 293 -36 373 -77 29 -14 164 -98 301 -186 137 -88 276 -172 310 -187 76
-34 162 -54 341 -79 77 -11 181 -30 230 -41 218 -51 344 -46 408 17 20 19 51
59 68 89 17 30 47 71 67 90 39 38 439 239 497 250 55 10 88 -4 162 -69 53 -46
89 -69 138 -86 65 -23 74 -24 253 -17 l185 6 51 54 c62 64 101 78 286 100 212
26 278 53 315 126 37 73 79 109 200 171 138 71 192 90 334 125 l114 27 278
-16 c205 -12 285 -14 303 -6 13 6 41 32 62 58 67 80 582 641 703 765 64 65
338 334 609 598 271 265 491 483 489 485 -3 2 -137 4 -298 4 l-294 0 -155 54
c-85 30 -499 169 -920 310 l-765 255 -120 110 c-66 60 -128 110 -137 110 -58
1 -131 85 -204 236 -34 70 -54 98 -78 112 -19 11 -46 37 -62 57 -16 21 -50 62
-76 92 -31 36 -50 70 -58 102 -6 26 -27 74 -46 105 -19 31 -34 64 -34 73 0 16
66 117 125 191 42 52 43 62 10 62 -14 0 -52 11 -85 25 -33 14 -67 25 -77 25
-10 0 -103 -20 -208 -46 -173 -42 -194 -46 -232 -35 -64 17 -68 32 -67 211 l2
155 42 95 c30 68 80 148 177 283 74 103 133 193 130 200 -3 7 -225 239 -493
517 -562 582 -614 627 -786 694 -144 56 -207 66 -454 75 -193 7 -204 8 -254
34 -28 15 -62 27 -75 27 -12 0 -64 -21 -115 -46 -123 -61 -196 -70 -264 -30
-45 26 -208 147 -278 206 l-38 32 -9 -24z m34 -17 c9 -15 167 -136 247 -189
67 -44 75 -47 138 -47 58 0 77 5 151 42 136 67 135 67 183 40 56 -33 68 -35
261 -42 234 -9 338 -26 465 -76 171 -66 222 -111 776 -685 269 -278 490 -510
492 -515 2 -5 -56 -90 -128 -190 -103 -142 -142 -204 -176 -284 l-43 -102 -3
-149 c-2 -163 6 -198 52 -221 42 -22 115 -15 280 27 172 43 211 47 252 26 14
-8 42 -19 62 -26 20 -6 36 -14 36 -17 0 -3 -22 -33 -48 -67 -67 -85 -102 -142
-102 -164 0 -11 8 -30 19 -43 27 -35 51 -85 68 -141 8 -28 31 -68 52 -91 21
-23 52 -63 70 -89 19 -26 39 -49 45 -53 52 -26 70 -45 95 -105 57 -136 141
-243 204 -262 30 -8 72 -39 147 -108 58 -54 115 -102 127 -109 12 -6 424 -147
915 -313 l893 -302 303 -6 302 -5 -382 -370 c-567 -550 -718 -703 -1090 -1110
-186 -203 -350 -378 -363 -389 -23 -18 -31 -18 -304 -2 l-281 16 -127 -31
c-206 -51 -430 -159 -491 -236 -16 -21 -39 -56 -50 -79 -19 -37 -28 -43 -88
-63 -38 -12 -122 -29 -189 -37 -195 -24 -241 -39 -302 -100 l-53 -52 -132 -10
c-240 -18 -321 1 -437 103 -116 102 -134 99 -442 -56 -237 -119 -231 -114
-323 -254 -75 -115 -158 -128 -436 -69 -63 14 -178 34 -255 45 -165 24 -267
49 -338 86 -29 14 -146 87 -262 161 -258 167 -351 219 -435 242 -36 10 -152
26 -258 35 -256 22 -305 43 -374 163 l-33 57 2 140 2 140 -45 39 c-45 39 -47
39 -144 44 -97 5 -99 5 -108 32 -6 15 -32 48 -59 73 -67 63 -110 139 -129 226
-8 40 -25 94 -38 120 -13 25 -45 107 -71 181 l-47 135 -74 72 c-41 39 -74 76
-74 81 0 5 -28 23 -63 40 -87 42 -204 162 -213 220 -8 51 -53 105 -137 165
-90 64 -97 66 -236 92 -144 26 -251 71 -251 104 0 34 138 304 162 317 17 10
70 11 203 7 154 -5 185 -4 211 10 43 22 82 71 89 110 4 18 2 146 -4 284 -9
233 -8 258 10 346 19 97 35 141 92 257 31 64 32 67 29 188 -2 77 2 138 9 160
18 55 63 107 108 124 39 16 43 15 84 -6 75 -40 102 -40 144 -2 32 29 37 41 38
77 1 40 12 116 35 244 5 28 21 101 35 164 27 118 33 130 124 244 21 26 76 116
124 200 121 215 143 233 317 257 84 12 100 24 100 79 0 65 30 220 55 286 13
36 40 93 59 128 43 78 73 180 81 280 3 43 15 106 26 141 18 60 21 64 54 70 20
4 85 4 144 0 100 -6 112 -5 143 14 18 12 45 37 60 56 26 33 29 34 63 23 22 -6
53 -30 80 -61 25 -28 55 -62 66 -75 l22 -25 24 30 c46 56 91 142 139 267 47
123 56 138 69 118z"/>
<path d="M0 400 l0 -400 5000 0 5000 0 0 400 0 400 -5000 0 -5000 0 0 -400z
m2192 123 c23 -20 23 -57 1 -74 -15 -11 -16 -11 -5 1 27 31 11 72 -33 83 -19
4 -19 5 -1 6 11 0 28 -6 38 -16z m-69 -8 c-3 -9 -8 -14 -10 -11 -3 3 -2 9 2
15 9 16 15 13 8 -4z m-1760 -114 c22 -61 43 -108 47 -104 4 4 24 56 45 116 21
59 42 107 47 107 11 0 9 -5 -42 -149 -23 -64 -44 -107 -53 -109 -15 -3 -17 0
-67 143 -15 44 -31 88 -36 99 -5 13 -3 17 6 14 8 -2 32 -55 53 -117z m517 89
c0 -23 4 -30 20 -30 11 0 20 -4 20 -10 0 -5 -10 -10 -21 -10 -20 0 -21 -4 -17
-71 3 -55 8 -74 23 -85 23 -17 14 -29 -13 -15 -11 6 -22 25 -26 42 -10 51 -7
209 4 209 6 0 10 -13 10 -30z m515 16 c25 -11 33 -19 29 -30 -7 -19 -5 -19
-40 -1 -36 18 -55 19 -78 2 -28 -21 -9 -45 49 -62 87 -25 108 -74 54 -127 -29
-29 -33 -30 -90 -25 -68 6 -72 8 -64 29 5 13 12 14 40 5 50 -15 100 1 100 33
0 16 -8 28 -25 36 -87 40 -105 51 -108 67 -14 70 53 106 133 73z m105 -16 c0
-25 4 -30 25 -30 16 0 25 -6 25 -15 0 -9 -9 -15 -25 -15 -24 0 -25 -3 -25 -60
0 -55 2 -62 25 -72 14 -6 25 -15 25 -20 0 -18 -31 -20 -55 -4 -24 16 -25 20
-25 131 0 96 3 115 15 115 10 0 15 -10 15 -30z m482 -32 l3 -62 36 32 c20 18
45 32 55 32 14 0 9 -9 -21 -40 l-39 -40 42 -60 c40 -57 41 -60 20 -60 -16 0
-32 14 -53 45 -16 25 -33 45 -37 45 -5 0 -8 -20 -8 -45 0 -38 -3 -45 -20 -45
-19 0 -20 7 -20 130 0 122 1 130 20 130 16 0 19 -8 22 -62z m193 30 c1 -20 -2
-24 -11 -17 -8 7 -14 6 -17 -3 -3 -7 -6 2 -6 20 -1 27 3 33 17 30 11 -2 17
-13 17 -30z m-44 -35 c13 -16 12 -17 -3 -4 -17 13 -22 21 -14 21 2 0 10 -8 17
-17z m-1502 -19 c12 -15 21 -40 21 -55 0 -29 0 -29 -65 -29 -72 0 -83 -12 -44
-51 17 -17 30 -20 65 -16 43 4 59 -5 28 -17 -45 -17 -106 3 -123 41 -45 98 56
206 118 127z m191 16 c17 -11 10 -13 -40 -10 -47 2 -75 -28 -75 -80 0 -55 26
-80 82 -80 27 0 42 -4 38 -10 -9 -15 -78 -12 -102 5 -50 35 -50 135 0 170 24
17 74 20 97 5z m265 -13 c20 -16 28 -35 32 -69 5 -42 3 -50 -25 -78 -41 -41
-83 -41 -124 0 -28 28 -30 36 -25 78 9 82 84 119 142 69z m85 7 c0 -14 2 -14
22 0 24 17 38 20 38 9 0 -5 -14 -16 -30 -25 -29 -17 -30 -19 -30 -93 0 -43 -4
-75 -10 -75 -6 0 -10 40 -10 100 0 60 4 100 10 100 6 0 10 -7 10 -16z m537 1
c30 -21 44 -75 32 -120 -25 -88 -143 -88 -168 0 -20 72 20 135 84 135 17 0 40
-7 52 -15z m198 -5 c0 -10 -8 -14 -27 -12 -58 6 -91 -42 -67 -100 11 -28 36
-40 74 -35 12 1 20 -4 20 -13 0 -19 -48 -25 -85 -10 -63 26 -68 148 -6 179 31
15 91 9 91 -9z m5384 -83 c8 -26 17 -47 21 -47 4 0 13 21 21 47 8 25 20 48 26
50 8 3 4 -21 -11 -64 -13 -38 -29 -68 -36 -68 -7 0 -23 30 -36 68 -15 43 -19
67 -11 64 6 -2 18 -25 26 -50z m638 38 c2 -6 -9 -11 -23 -10 -39 0 -42 -23 -5
-36 34 -12 49 -43 31 -64 -13 -16 -38 -19 -64 -9 -27 10 -18 22 17 20 38 -1
43 19 8 37 -36 18 -48 42 -31 62 14 17 61 17 67 0z m333 -20 c0 -35 16 -47 26
-20 4 8 13 15 22 15 13 0 13 -3 -2 -19 -16 -18 -16 -21 -1 -50 19 -38 8 -40
-22 -3 l-22 27 -1 -27 c0 -16 -4 -28 -10 -28 -6 0 -10 30 -10 70 0 40 4 70 10
70 6 0 10 -16 10 -35z m580 32 c0 -4 -34 -104 -45 -136 -3 -8 -8 -11 -11 -8
-8 7 38 147 48 147 4 0 8 -2 8 -3z m98 -9 c21 -21 13 -45 -25 -77 l-38 -30 43
-1 c23 0 42 -4 42 -10 0 -5 -22 -10 -50 -10 -62 0 -65 15 -14 63 42 40 39 62
-8 53 -26 -5 -29 -4 -18 9 15 18 51 20 68 3z m112 -7 c-5 -11 -15 -23 -20 -26
-6 -4 -1 -14 12 -25 20 -15 21 -21 10 -44 -11 -26 -34 -32 -66 -20 -28 11 -17
24 14 18 22 -5 31 -2 36 11 6 16 -3 28 -31 39 -6 2 -5 9 3 17 18 19 15 29 -8
29 -11 0 -20 5 -20 10 0 6 18 10 40 10 37 0 40 -2 30 -19z m108 7 c21 -21 13
-45 -25 -77 l-38 -30 43 -1 c23 0 42 -4 42 -10 0 -5 -22 -10 -50 -10 -62 0
-65 15 -14 63 42 40 39 62 -8 53 -26 -5 -29 -4 -18 9 15 18 51 20 68 3z m122
7 c0 -6 -60 -127 -66 -134 -2 -2 -7 -2 -10 1 -3 3 6 29 20 57 14 28 26 53 26
56 0 3 -13 5 -30 5 -16 0 -30 5 -30 10 0 6 20 10 45 10 25 0 45 -2 45 -5z m90
-5 c0 -5 -11 -10 -25 -10 -32 0 -32 -16 -1 -24 27 -7 41 -35 31 -65 -7 -23
-37 -35 -65 -26 -31 10 -24 23 13 21 28 -1 32 2 32 24 0 21 -4 25 -30 24 -29
-1 -30 0 -27 32 4 31 7 34 38 34 19 0 34 -4 34 -10z m110 0 c0 -5 -11 -10 -25
-10 -32 0 -32 -16 -1 -24 27 -7 41 -35 31 -65 -7 -23 -37 -35 -65 -26 -31 10
-24 23 13 21 28 -1 32 2 32 24 0 21 -4 25 -30 24 -29 -1 -30 0 -27 32 4 31 7
34 38 34 19 0 34 -4 34 -10z m110 0 c0 -5 -11 -10 -25 -10 -32 0 -32 -16 -1
-24 27 -7 41 -35 31 -65 -7 -23 -37 -35 -65 -26 -31 10 -24 23 13 21 28 -1 32
2 32 24 0 22 -4 25 -33 23 -26 -1 -32 2 -28 14 3 8 6 23 6 34 0 15 7 19 35 19
19 0 35 -4 35 -10z m120 0 c0 -5 -11 -10 -25 -10 -14 0 -29 -8 -35 -20 -10
-19 -9 -20 13 -15 24 6 57 -15 57 -36 0 -44 -48 -63 -82 -32 -28 25 -19 92 16
115 16 11 56 10 56 -2z m-2080 -35 c9 -10 9 -15 1 -15 -15 0 -14 -57 2 -63 6
-2 9 -7 6 -11 -15 -17 -37 8 -41 47 -7 58 5 74 32 42z m360 0 c9 -10 9 -15 1
-15 -15 0 -14 -57 2 -63 6 -2 9 -7 6 -11 -15 -17 -37 8 -41 47 -7 58 5 74 32
42z m-532 -7 c23 -23 13 -38 -24 -38 -46 0 -41 -23 7 -30 27 -4 30 -7 16 -13
-28 -11 -44 -9 -61 9 -32 31 -14 84 29 84 12 0 26 -5 33 -12z m109 5 c14 -6
10 -9 -17 -13 -29 -4 -35 -9 -35 -30 0 -21 5 -26 33 -28 36 -4 34 -22 -3 -22
-28 0 -55 24 -55 50 0 22 25 50 45 50 7 0 22 -3 32 -7z m177 -9 c31 -30 9 -84
-34 -84 -24 0 -50 26 -50 50 0 24 26 50 50 50 10 0 26 -7 34 -16z m86 6 c0 -4
-7 -10 -15 -14 -9 -3 -15 -19 -15 -41 0 -19 -4 -35 -10 -35 -5 0 -10 22 -10
49 0 45 2 49 25 49 14 0 25 -4 25 -8z m274 -6 c31 -30 9 -84 -34 -84 -24 0
-50 26 -50 50 0 24 26 50 50 50 10 0 26 -7 34 -16z m121 7 c3 -5 -9 -11 -27
-13 -28 -2 -33 -7 -33 -28 0 -21 5 -26 33 -28 36 -4 34 -22 -3 -22 -28 0 -55
24 -55 50 0 37 67 69 85 41z m250 0 c3 -5 -9 -11 -27 -13 -28 -2 -33 -7 -33
-28 0 -21 5 -26 33 -28 36 -4 34 -22 -3 -22 -28 0 -55 24 -55 50 0 37 67 69
85 41z m99 -7 c21 -20 20 -43 -1 -66 -20 -22 -46 -23 -67 -2 -31 30 -9 84 34
84 10 0 26 -7 34 -16z m113 4 c7 -5 14 -5 18 2 10 16 42 12 49 -6 10 -25 7
-84 -4 -84 -5 0 -10 18 -10 41 0 33 -3 40 -17 37 -13 -2 -19 -14 -21 -41 -4
-50 -22 -47 -22 4 0 36 -2 40 -22 37 -19 -2 -24 -10 -26 -40 -5 -55 -22 -46
-22 10 0 48 0 49 33 49 17 0 37 -4 44 -9z m-327 -78 c0 -5 -4 -10 -10 -10 -5
0 -10 5 -10 10 0 6 5 10 10 10 6 0 10 -4 10 -10z"/>
<path d="M2150 500 c0 -5 5 -10 10 -10 6 0 10 5 10 10 0 6 -4 10 -10 10 -5 0
-10 -4 -10 -10z"/>
<path d="M536 418 c-28 -39 -21 -48 39 -48 59 0 67 9 45 51 -15 27 -64 25 -84
-3z"/>
<path d="M986 424 c-50 -50 -21 -144 44 -144 48 0 80 50 66 104 -13 53 -75 75
-110 40z"/>
<path d="M1616 408 c-32 -46 -8 -118 39 -118 28 0 55 34 55 70 0 36 -27 70
-55 70 -13 0 -31 -10 -39 -22z"/>
<path d="M9646 331 c-11 -18 6 -42 28 -39 29 4 29 42 -1 46 -11 2 -24 -1 -27
-7z"/>
<path d="M7405 340 c-4 -6 5 -10 19 -10 14 0 26 5 26 10 0 6 -9 10 -19 10 -11
0 -23 -4 -26 -10z"/>
<path d="M7684 336 c-10 -26 4 -48 28 -44 17 2 23 10 23 28 0 18 -6 26 -23 28
-13 2 -25 -3 -28 -12z"/>
<path d="M8044 336 c-10 -26 4 -48 28 -44 17 2 23 10 23 28 0 18 -6 26 -23 28
-13 2 -25 -3 -28 -12z"/>
<path d="M8514 336 c-10 -26 4 -48 28 -44 17 2 23 10 23 28 0 18 -6 26 -23 28
-13 2 -25 -3 -28 -12z"/>
</g>
</svg>
