<svg width="248" height="248" xmlns="http://www.w3.org/2000/svg" xmlns:xlink="http://www.w3.org/1999/xlink" overflow="hidden"><defs><clipPath id="clip0"><path d="M591 67 839 67 839 315 591 315Z" fill-rule="evenodd" clip-rule="evenodd"/></clipPath><clipPath id="clip1"><path d="M592 68 838 68 838 314 592 314Z" fill-rule="evenodd" clip-rule="evenodd"/></clipPath><clipPath id="clip2"><path d="M592 68 838 68 838 314 592 314Z" fill-rule="evenodd" clip-rule="evenodd"/></clipPath><clipPath id="clip3"><path d="M592 68 838 68 838 314 592 314Z" fill-rule="evenodd" clip-rule="evenodd"/></clipPath><clipPath id="clip4"><path d="M592 68 838 68 838 314 592 314Z" fill-rule="evenodd" clip-rule="evenodd"/></clipPath><clipPath id="clip5"><path d="M592 68 838 68 838 314 592 314Z" fill-rule="evenodd" clip-rule="evenodd"/></clipPath><clipPath id="clip6"><path d="M592 68 838 68 838 314 592 314Z" fill-rule="evenodd" clip-rule="evenodd"/></clipPath></defs><g clip-path="url(#clip0)" transform="translate(-591 -67)"><g clip-path="url(#clip1)"><g clip-path="url(#clip2)"><g clip-path="url(#clip3)"><path d="M674 210.695C684.955 210.7 693.84 201.822 693.844 190.867 693.848 179.912 684.971 171.027 674.015 171.023 663.06 171.018 654.176 179.896 654.171 190.851 654.171 190.854 654.171 190.857 654.171 190.859 654.169 201.811 663.045 210.693 673.997 210.695 673.998 210.695 673.999 210.695 674 210.695ZM674 176.15C682.125 176.146 688.715 182.729 688.719 190.854 688.723 198.979 682.14 205.569 674.015 205.573 665.89 205.577 659.301 198.994 659.296 190.869 659.296 190.866 659.296 190.862 659.296 190.859 659.304 182.741 665.881 176.16 674 176.15Z" fill="#7F7F7F"/><path d="M710.218 226.427C704.393 221.932 697.716 218.664 690.592 216.822 685.215 215.174 679.624 214.331 674 214.319 668.393 214.41 662.825 215.251 657.441 216.82 650.393 218.867 643.751 222.112 637.805 226.414 634.828 228.756 633.064 232.313 633 236.1L633 255.063 715 255.063 715 236.1C714.94 232.321 713.184 228.769 710.218 226.427ZM709.875 249.938 638.125 249.938 638.125 236.1C638.174 233.907 639.195 231.848 640.913 230.483 646.348 226.587 652.401 223.635 658.817 221.75 663.753 220.31 668.859 219.535 674 219.444 679.137 219.46 684.243 220.238 689.152 221.75 695.623 223.406 701.691 226.354 706.992 230.416 708.758 231.782 709.816 233.869 709.875 236.1Z" fill="#7F7F7F"/><path d="M735.5 188.438 797 188.438 797 193.563 735.5 193.563Z" fill="#7F7F7F"/><path d="M735.5 208.938 797 208.938 797 214.063 735.5 214.063Z" fill="#7F7F7F"/><path d="M735.5 229.438 797 229.438 797 234.563 735.5 234.563Z" fill="#7F7F7F"/><path d="M735.5 249.938 797 249.938 797 255.063 735.5 255.063Z" fill="#7F7F7F"/><path d="M807.25 134.625 732.938 134.625 732.938 114.125C732.938 108.464 728.348 103.875 722.688 103.875L707.313 103.875C701.652 103.875 697.063 108.464 697.063 114.125L697.063 134.625 622.75 134.625C617.089 134.625 612.5 139.214 612.5 144.875L612.5 267.875C612.5 273.536 617.089 278.125 622.75 278.125L807.25 278.125C812.911 278.125 817.5 273.536 817.5 267.875L817.5 144.875C817.5 139.214 812.911 134.625 807.25 134.625ZM702.188 114.125C702.188 111.294 704.482 109 707.313 109L722.688 109C725.518 109 727.813 111.294 727.813 114.125L727.813 142.313C727.813 145.143 725.518 147.438 722.688 147.438L707.313 147.438C704.482 147.438 702.188 145.143 702.188 142.313ZM812.375 267.875C812.375 270.706 810.081 273 807.25 273L622.75 273C619.919 273 617.625 270.706 617.625 267.875L617.625 144.875C617.625 142.044 619.919 139.75 622.75 139.75L697.063 139.75 697.063 142.313C697.063 147.973 701.652 152.563 707.313 152.563L722.688 152.563C728.348 152.563 732.938 147.973 732.938 142.313L732.938 139.75 807.25 139.75C810.081 139.75 812.375 142.044 812.375 144.875Z" fill="#7F7F7F"/></g></g></g><g clip-path="url(#clip4)"><g clip-path="url(#clip5)"><g clip-path="url(#clip6)"><path d="M674 210.695C684.955 210.7 693.84 201.822 693.844 190.867 693.848 179.912 684.971 171.027 674.015 171.023 663.06 171.018 654.176 179.896 654.171 190.851 654.171 190.854 654.171 190.857 654.171 190.859 654.169 201.811 663.045 210.693 673.997 210.695 673.998 210.695 673.999 210.695 674 210.695ZM674 176.15C682.125 176.146 688.715 182.729 688.719 190.854 688.723 198.979 682.14 205.569 674.015 205.573 665.89 205.577 659.301 198.994 659.296 190.869 659.296 190.866 659.296 190.862 659.296 190.859 659.304 182.741 665.881 176.16 674 176.15Z" fill="#7F7F7F"/><path d="M710.218 226.427C704.393 221.932 697.716 218.664 690.592 216.822 685.215 215.174 679.624 214.331 674 214.319 668.393 214.41 662.825 215.251 657.441 216.82 650.393 218.867 643.751 222.112 637.805 226.414 634.828 228.756 633.064 232.313 633 236.1L633 255.063 715 255.063 715 236.1C714.94 232.321 713.184 228.769 710.218 226.427ZM709.875 249.938 638.125 249.938 638.125 236.1C638.174 233.907 639.195 231.848 640.913 230.483 646.348 226.587 652.401 223.635 658.817 221.75 663.753 220.31 668.859 219.535 674 219.444 679.137 219.46 684.243 220.238 689.152 221.75 695.623 223.406 701.691 226.354 706.992 230.416 708.758 231.782 709.816 233.869 709.875 236.1Z" fill="#7F7F7F"/><path d="M735.5 188.438 797 188.438 797 193.563 735.5 193.563Z" fill="#7F7F7F"/><path d="M735.5 208.938 797 208.938 797 214.063 735.5 214.063Z" fill="#7F7F7F"/><path d="M735.5 229.438 797 229.438 797 234.563 735.5 234.563Z" fill="#7F7F7F"/><path d="M735.5 249.938 797 249.938 797 255.063 735.5 255.063Z" fill="#7F7F7F"/><path d="M807.25 134.625 732.938 134.625 732.938 114.125C732.938 108.464 728.348 103.875 722.688 103.875L707.313 103.875C701.652 103.875 697.063 108.464 697.063 114.125L697.063 134.625 622.75 134.625C617.089 134.625 612.5 139.214 612.5 144.875L612.5 267.875C612.5 273.536 617.089 278.125 622.75 278.125L807.25 278.125C812.911 278.125 817.5 273.536 817.5 267.875L817.5 144.875C817.5 139.214 812.911 134.625 807.25 134.625ZM702.188 114.125C702.188 111.294 704.482 109 707.313 109L722.688 109C725.518 109 727.813 111.294 727.813 114.125L727.813 142.313C727.813 145.143 725.518 147.438 722.688 147.438L707.313 147.438C704.482 147.438 702.188 145.143 702.188 142.313ZM812.375 267.875C812.375 270.706 810.081 273 807.25 273L622.75 273C619.919 273 617.625 270.706 617.625 267.875L617.625 144.875C617.625 142.044 619.919 139.75 622.75 139.75L697.063 139.75 697.063 142.313C697.063 147.973 701.652 152.563 707.313 152.563L722.688 152.563C728.348 152.563 732.938 147.973 732.938 142.313L732.938 139.75 807.25 139.75C810.081 139.75 812.375 142.044 812.375 144.875Z" fill="#7F7F7F"/></g></g></g></g></svg>