<svg xmlns="http://www.w3.org/2000/svg" viewBox="0 0 207.83 226.16"><defs><style>.cls-1{fill:#f3df39;}.cls-2{fill:#2e3192;}.cls-3{fill:none;}.cls-4{fill:#fff;}</style></defs><g id="Layer_2" data-name="Layer 2"><g id="Layer_2-2" data-name="Layer 2"><path class="cls-1" d="M48.92,0V120.48A24,24,0,0,1,47,117a61.1,61.1,0,0,0-2.78,15.15H5V0Z"/><path class="cls-1" d="M48.92,120.48v11.7H44.18A61.1,61.1,0,0,1,47,117,24,24,0,0,0,48.92,120.48Z"/><path class="cls-1" d="M98.45,2.76v84c0,9.57-.74,18.17-3.1,25.09-3.65,10.77-11.23,17.48-26.06,17.48-9.67,0-16.28-3-20.37-8.89A24,24,0,0,1,47,117a61.1,61.1,0,0,0-2.78,15.15c-.23,3.16-.32,6.49-.32,9.94v22.11a67.74,67.74,0,0,0,9.21.61c25.58,0,38.42-12.12,45.38-22.37v83.69h43.86V2.76Z"/><path class="cls-1" d="M200.12,66A30,30,0,0,1,198,55.79a33,33,0,0,1,1.68-9c.19-1.06.33-1.82.42-2.26a6.06,6.06,0,0,0,.14-1.19q0-2.93-3.36-5.05L139.14,49.15v4.78l15.7-2.66q1.68,17.54,8.83,25.49t18.93,8q9.53,0,25.23-6.37A42.61,42.61,0,0,1,200.12,66Z"/><path class="cls-2" d="M142.31,124.53V226.16H98.72V131.09c0-7.81-1-14.23-3.37-19.2C91.58,103.77,84.43,99.55,73,99.55,58.18,99.55,50.6,106.26,47,117c-2.37,6.92-3.1,15.52-3.1,25.09v84H0V2.76H43.86V86.45c7-10.25,19.79-22.37,45.38-22.37a67.74,67.74,0,0,1,9.21.61C123.53,68.09,142.31,86.14,142.31,124.53Z"/><line class="cls-3" x1="142.31" y1="134.57" x2="142.31" y2="129.79"/><rect class="cls-4" x="99.01" y="154.92" width="43.12" height="69.2"/><rect class="cls-2" x="98.82" y="178.86" width="43.49" height="10.91"/><rect class="cls-2" x="98.82" y="209.88" width="43.49" height="14.24"/><rect class="cls-2" x="98.82" y="192.7" width="43.49" height="14.24"/><rect class="cls-2" x="98.82" y="165.24" width="43.49" height="10.35"/><rect class="cls-2" x="98.82" y="154.92" width="43.49" height="7.12"/></g></g></svg>