<svg xmlns="http://www.w3.org/2000/svg" viewBox="0 0 1471.67 1144.9"><defs><style>.cls-1{fill:none;stroke:#231f20;stroke-linecap:round;stroke-linejoin:round;stroke-width:2px;}</style></defs><g id="Layer_2" data-name="Layer 2"><g id="Layer_2-2" data-name="Layer 2"><path class="cls-1" d="M17.81,678.67,21,675.9v-2.37l-1.58-1-1.59-3.17,3.17-2,1.78-.8v-3.75H20.29l-2.48-2.58,1-2.76,1.49-2-2.48-2,1-2.77h2.57L24,644.85l6.13,1.38,3,1,5.54-.4,10.09.2v-3.16l3.36-1L53,647l5.94-.59v-1.78l4.35-.6v3.76l3.76,3,3,4.15,4.75-.59L76.36,652l4-3L88,647.81,94,649l3-2.37,5.34-4.75,8.31-10.48-3.16-95.74L109,527l3.36-9.7,2.18-6.72,2.77-9.1,3.56-7.32.79-4.75,2.18-3.36,3.36-1.78,1.18-3,3.17-1.58L129,474.74l2.57-2.38L127,434.78l12.07-15.63V416l14.83-12.26h4.15l14.64,13.45v6.52l3.17-.39,1.38-4.16,4.95-.19,1-2.58,1.58-.39v-4.35l2.37-.79,5.94-5.54.79-6.13h-2.38l-2-3.17.19-3.56L197,375.24v-2.77l-1.58-2.77-3.36-2.57-.4-2,14.84-32-1.59-3.36-3.16-4.16,1-11.47,2.77-5.74,6.33-3.36,7.71-2.77,3.56-4.94V294l5.14-3.57,3-2.76v-6.14l2-6.13,3-2.17,3.16-1v-6.33L259.73,232l4.15-1,1-5.53,26.7-5.35h10.09v1.59l7.32-.2V216.8l1.38-5.54v-3.95l1.19-2.57-1.39-3.37-2.37-1.58-.39-2.37,4.15-4.16v-3.95l-2.18-1.39.6-3,1.58-2.38,1.78-7.91,3.16-7.52v-7.91l3.37-4.35,15-22.75v-9.89l2.77-4.15,1.78-4.75,2.77-5.14V100.1l-2.57-2.37L339,92l9.1-28.68h2.57l1.59-3.76h4.15l2.18-2.37,9.69,1,.79-2.57,16.22,1.19.79,3.17h4.55l1.38,3.75,2.38-.39,2-2,4.55.2,3.16-4V49.66l1.78-1V46.3h3.36V44.12h15.43l1.39,3.56,2.77,3L432.21,54v6.13l3,.2v3.17l3.36.39,1.38,3.17v1.58l4.16,1.19V76l3,2.37,2.18,1.58L482.05,1l2.77,3.56,1.39,3.17H488v4.94l3.36.2,1.39,4.35,4.55.59,3.36,1.39,3,2.17,2.57-.39,8.11-.2v2.77l2.37.2v5.73l2.18-.79,1,2.38,1-.8v6.14l9.5,5.73V45.9l3.16.4v1.58l15.43-1,6.93-1.38.79-3.76,3,1,2.18,1.78,7.52-2s1.18-3,2-2.57,8.11-.4,8.11-.4l11.48-8.7V24.14l6.33.4,4,2.57,2.77,3.56,2.57,3.76,1,3.16v2.77l1.78,2.18,1,2.17,4,.4V42.54l3.56-3h3.56l1.78,1.78,4.35.2,1-1.58,5.14-.4,5.94-3.16L640.3,34V32.25l1.58.2,2,.2v1.78l3.56,2,2.37,2.37L653,39l1,1.78,8.5-.6V38l4.15.2,3.17,3,4.94,2.58,2.77,3,5.34-.39,1.59-2,2.37-1.39,5.34.4h3.56l7.12-.2,3,2.38,3.56.19,6.92,3.76,8.71,9.1,4.55,3.76L735,64.89l7.32,3.56L745.93,71l7.11.79,6.33,1,5.54,2,3.56,2L772,81.31l4,5.54,5.93,6.72,5.74,5.94,4.35,6.33,2.37,4.74,4,6.73,3.76,4.35,2,4.75,2.37,4.15,9.69,6.73,5.74,2.37,7.71,5.34,6.53,3.76,10.68,8.7,5.15,4.75,8.5,7.91,5.54,7.52,2.57,5.34,2.57,6.53,1.78,4.54,1.78,2.77,2.57,3.76,2.38,3.37,2.57,2.57,3.16,1.58,3.56,2,3.76,1.18,3,1,2.37.6,3.37,3.75,20,27.1-4.55,7.52-2.77,5.93-4.94,6.53L898,280.3l-3.16,2.57-3.17,5.54-6.92,10.08-4.94,9.5-7.72,3.36-.39,3.36-6.33,1L864,319.86l.2,7.12-3,4.15-1.19,6.73.8,8.9,1.58,5.34.79,4.15.59,29.67-.39,3.76-3.56,2.57,1,1.39,7.51,1.38s5.54,1,6.13,1.19a28.7,28.7,0,0,1,3,1.78l5.34-.79,6.53.2,2.18-3.17,3.16-1.38,6.73-.2,2-.2,1.19,1.58,4.15-.79,1.59-2,4.15-.19,3.56-1.78,5.74,2,2.77-1.58,5.14-3.36,6.72-1.58,1-2,6.33.79,6.14.59,4.15,2.38,3,2.17,1.18,3,2.18,2.18,4.15-1.19,3.17,2.17,3-2.37,1.92-.86L974,394l-2,3,.59,3-2.37.79h-4l-1.38,3.76-1.38,3v3.17L960,412.43l-3.37,1.78-1,4.94-.39,5-3.56,2.57-3.56.79.19,3.36,1.59,4.55,2.17,3.76,5.15,4.16,3.75,4.35,1.59,3.16v7.72l1.38,4.55,1.58,5.34,2,4.35,5.34,3.76,4.55,2.57,2.77,2a21.61,21.61,0,0,1,2.77,3c.4.79,2.37,3.76,2.37,3.76v4.75l2,4.55,3.56,4.35,5,.59,3.36-.19,2.18.39,1.58,3.17,2.37,4.55-2.17.79,2.17,4.55v4.15l2.57,7.71,3,1.78,3.56.4v3.76l2.18,2.37,3.75,1.58,2,3.76v7.91l16.22,10.49,2.18-1.58,2.77-.2,2.17.79,1.19,2.57,34,30.66,293.74,100.29h96.13L1311.24,845.22,1282,875.68l-26.51,29.67L1173.18,996,1077.84,990,1065.57,996l-18.2,4.35h-14.24l-9.49,7.91-12.27,4.75-11.07,3.95L988,1025.62l-11.47,9.09L975,1041l-1.19,5.15-1.58,3.16-2,2.38-4,2.37-5.14,2.37-10.28,2.38-11.87,2H925.53l-7.12,2.77h-21l-21.36,14.25v5.93l-7.52,5.93-5.54-2.37-2.77-2.37-6.33-.4-2.77,2.37-4.35.8-1.58-4.36-2.37,2.38-3.3,1.45-5.28.66-2.63.26-1.06,1.58-6.59.93H804.34l-4.48-.79-1.72-2.25-2.24-2-3.69-3.43-3.56-4.88-4.22-4.88-5.28-.79-5.14-7.52-5.27-2.9-5-5.54-7.13,5.41-5.67,1.84-5,1.85-6.07,2.24-4.35,1.85-5.67,1.71-3.3,2.11-2.11,1.58-1.06,2-2.63.66-2.11.13-2.64.66-3,1.32-2.51.66-2.9,1.32-2.37.26-4.06,2.81-24.63,12.06-2.67,1.19-1.58,2.17-1,1.69-1,1.78-1,3.16-.59,2.37-.59,2.08-.89,3.07s-1.39.89-1.49,1.28-1.78,3.37-1.78,3.37L647.12,1134,646,1135.4l-.39,2.27L645,1140l.09,1.18-1.78,2.08-1.58.69-2.47-.79-1.48-1.78-.5-2.08-1.38-1-1.39-.89-2.08-.29h-8l-2.17-.5v-2.07l-2.28-1-2,.69-1.29,1.78-2.18,1.58-4-.59-3-.5-3.46-2.07-4.35-1.88-1.78-.79-3.37.1H590l-4.06.49-4-.1-3.76-.59-4.16-.79-3.36-.7-4.65-1.48-3.36-1.58-2.67-2-.89-2.37-.4-1.09-2,.2-.7,2-1,1.29-2.28.1-1.29-.59-.39-1-2.57-.6-1.78.3-1.39-1.68-.79-.89-.79-1.29-.69-1.18-1.29.39-1,1.48-.29,2.28-2.67.79-5.44.59-10.49-.09-1.38-1h-7.52l-3.86.1-2.57.09-3.16-.29-2.28-.5-.69-1.48-2.47-.3-3.07-2.17-1.38-2.48-1.68-2.27-1.68-2.08-1.09-1.18L403.63,1055l-.7-1.48-.49-1.59-1.78-.49-2.08-.1-1.38-1.78-.79-1.39-1.68-.29-2.58-.2-1.48-1.19-2.08-.79-.69-1.09-1.68-.69-1.88-.69-1.78.1-1.78-1-1.29-.49-13.05-.2-4.55-.5H359l-6.53-.1-30.95-.09-9.89.19-13.25-.49-1.49-1.09-2.57-2.18-1.09-1.18-2.77-1.58-.19-1.49-.2-1.68v-1.38s.29-1.69.39-2a8.17,8.17,0,0,0,0-1.58l-1.18-1.69-16.62-20-.49-25.32,1.88-1.49,1.18-1.18.79-1.19,1-1.09.7-1.68v-5.14l-1.59-.69-.69-1.78L274,963.6l-.5-1.38.3-1.88,1.28-1,1-.2.8-1.18.89-.6.09-1.28-.09-1.39-1.09-.39-2-.6-2.18-1.08-2-1.88-2-.6-2-1.08-2-.3-2.37-1.48-1.78-.1-.89,1.18-.6,1.09-2.07.59-2.48-.49-1.28-1.38-1.09-.89-1.88-1.39-1.38-1.48-2.18-.89-3.66-.5-1.78.79-2.17.5-6.63,6.43-1.68,1h-1.58l-1.39-.79-1.19-1.19-1.28-2.08-1-1.48-.89-1.29L222,943.43l.5-1.48.59-.7.5-.29.69-.4,1-.79.2-.69.09-1-.09-1.88-1-.4L207.6,924.34l-1.18-2.27.29-2.87-.29-2.87-10.68-14.64-.3-2.47.69-1.48.69-.5.3-1.38-.49-1.39-2.08-.89-.69-.49L193,891.6l1.18-2.07.6-.5,1.38-.29.5-1.49L195.44,886l-.69-3.37v-1.87l-7.12-8.81-.89-2.57-1.19-2-1-2.77L182.19,863l-.1-3.26.49-5.14-1-3.07-1.48-2.08-1.09-2-.49-1.48L177,843.54l-.6-2,.1-2.08.3-2.17-.6-.89-.89-1.29-.79-1-.59-1.18-.4-2.28V828.6L172.2,825l-.89-1.58-.79-.89-1.29-2.37-.59-1.29s-.69.5-1.19,0-1.58-1.78-1.58-1.78l-1.68-.49-1-.69-2-1.39-4.55.1-4.75-.5-.29-1-1.39-1L150,810.6l-.5-1.58.69-1.28,1.19-.2.4-2.18.49-1v-1.88L150,800.42l-1.39-1.58-1.88-1.09-.49-.4-2.28-1.78-2.77-1.48h-1.58l-2.37-.2-1.68-1-2.67-.69-2.48-.89-1.88-.3-2.27-1.68-.69-2-2-1.09-1.29-.79-2.47-2.07-1.09-1.78.4-1.29.49-1,.3-1.68-.69-1.38-.79-1.59-.7-1.48-.19-1.09-1.78-.39-1.88.19-2-.09-1.49-.5-7.22-7.52L103,751.26l-16.72-17.4-3.26-.4-2.87-1.19-6.63-6.72-1.08-2.37-4.26-.8-1.88-1-.39-.8L64,719.52l-2.27.19-1.39.6-.89.69-3.86-.4-.89-2-1.78-1.88L51.24,716l-1.48.19-1.49-1.58-5.93-.3-1.88.1-1.68.5-.89,1-1.58,1.28-3.66-.1-1.49-.19-.69-.89-.39-.8L28.4,714l-1.09-1.39-1-1.18-2.18-.1-1.58-.5-.79-1-2.28-.19-1.18-.7-.5-.89-1.78.3V709l-1.08.5-.8.69c-.49.79-2.86.89-2.86.89l-1-1.38v-.5l-2.08-.89-2,.2v-1.49l-.79-.69-1.09-2.27-.49-1.78-1.39.2v-2.67L1,699.74v-2.08l.4-1.39,1.87-.59,1.49-2.08-.3-1.08.1-2,1.29-1.29,1.68-1.38,1-1.19,2.17-1.58.89-1.39.4-1.38.69-1.09.79-1,.69-.39.8-.3,1,.3,1.69-.2Z"/></g></g></svg>