<svg xmlns="http://www.w3.org/2000/svg" viewBox="0 0 1087.15 216.15"><defs><style>.cls-1{font-size:12px;font-family:MyriadPro-Regular, Myriad Pro;}.cls-2{fill:#414042;}.cls-3{fill:#f3df39;}</style></defs><g id="Layer_2" data-name="Layer 2"><g id="Layer_2-2" data-name="Layer 2"><text class="cls-1" transform="translate(436.88 56.69)">ህ</text><path class="cls-2" d="M101.66,210.3V200.1c13.2-2.1,14.1-4.2,14.1-20.4V126.9c0-23.1-9.6-30.9-21.3-30.9a30.68,30.68,0,0,0-21.9,8.7v75c0,16.2,1.5,18.3,15.3,20.4v10.2H16.46V200.1c14.7-1.8,17.4-2.7,17.4-21.6V39.6c0-13.8-1.8-17.1-18.6-19.8V10.2A305.28,305.28,0,0,0,72.56,0V93c10.5-10.2,25.2-19.5,40.5-19.5,26.1,0,41.7,17.1,41.7,50.1v54.9c0,18.9,2.1,19.2,16.5,21.6v10.2Z"/><path class="cls-2" d="M336.26,203.1c-18,2.4-37.2,6.3-57,10.8V193.5c-12.3,10.2-24.9,20.4-41.4,20.4-25.2,0-39.3-16.2-39.3-42.9V108.9c0-13.8-1.8-15.3-9.9-17.4l-6.3-1.8V80.1c15.3-.6,39-2.7,55.8-5.1-.6,12.6-.9,28.2-.9,45.3v43.8c0,19.5,9.9,26.1,20.4,26.1,8.4,0,15-1.8,21.6-8.7V109.2c0-13.8-1.5-16.2-9.9-17.7l-9-1.8V80.1c17.4-.6,42.9-2.7,57.9-5.1v97.8c0,15.6,1.8,18.9,11.4,19.8l6.6.6Z"/><path class="cls-2" d="M348.56,210.3V200.1c17.1-2.7,17.7-4.2,17.7-23.1V40.5c0-15.6-1.8-17.4-17.4-20.7V10.2C369.56,8.1,390.56,4.5,405,0V177c0,19.8.9,21,18,23.1v10.2Z"/><path class="cls-2" d="M588.55,203.1c-18,2.4-37.2,6.3-57,10.8V193.5c-12.3,10.2-24.9,20.4-41.4,20.4-25.2,0-39.3-16.2-39.3-42.9V108.9c0-13.8-1.8-15.3-9.9-17.4l-6.3-1.8V80.1c15.3-.6,39-2.7,55.8-5.1-.6,12.6-.9,28.2-.9,45.3v43.8c0,19.5,9.9,26.1,20.4,26.1,8.4,0,15-1.8,21.6-8.7V109.2c0-13.8-1.5-16.2-9.9-17.7l-9-1.8V80.1c17.4-.6,42.9-2.7,57.9-5.1v97.8c0,15.6,1.8,18.9,11.4,19.8l6.6.6Z"/><path class="cls-2" d="M664.75,210.6a32.77,32.77,0,0,1-12,3.3c-23.1,0-36.9-10.8-36.9-38.1V92.1h-19.2l-1.8-3.6,8.7-11.4h12.3V52.2c10.2-7.2,24.9-16.8,35.4-24l3.9,2.4c-.3,8.1-.9,24-.6,46.5h30c2.7,3,1.5,12.3-2.4,15h-27.6v73.5c0,23.4,9.6,26.1,15.3,26.1,5.1,0,9-.9,14.4-3l3,10.8Z"/><path class="cls-2" d="M813.85,180.9c-18.29,27-42.3,33-54.9,33-40.2,0-63-29.7-63-65.4,0-21,9.9-41.7,22.5-54,13.5-13.5,30.3-21,46.8-21,29.4,0,49.81,24.3,49.51,48.9,0,5.1-.3,10.2-3.91,11.1-5.7,1.5-48,3.6-77.1,4.8,1.2,31.8,18.9,48,40.5,48,11.7,0,23.4-4.2,34.2-13.5Zm-54.6-95.1c-12,0-22.2,14.1-24,37.8,12.3-.3,23.7-.6,36.3-.9,4.2-.3,6-.9,6-6C777.85,101.7,771,85.8,759.25,85.8Z"/><path class="cls-2" d="M912,210.3h-79.2V200.1c15.9-1.8,17.4-3.3,17.4-21.3V113.1c0-15-1.2-16.5-15.3-19.5V84.3a288.88,288.88,0,0,0,54-11.4v32.4c13.5-20.7,24.3-31.8,36.6-31.8,11.1,0,19.5,7.5,19.5,18,0,14.7-10.5,23.1-15.3,25.5a8.25,8.25,0,0,1-9.3-1.5c-5.1-4.2-9-9-14.1-9-4.5,0-12,3.9-17.4,15.3v57c0,18,2.1,18.9,23.1,21.3Z"/><path class="cls-2" d="M1055.05,213.9c-8.1,0-14.7-2.7-18.6-6.3a30.22,30.22,0,0,1-7.8-11.1c-11.4,7.5-26.1,17.4-31.8,17.4-25.8,0-40.8-20.1-40.8-38.7,0-15.9,7.2-23.1,23.1-29.4,17.7-6.6,41.4-13.8,48.3-19.8V112.8c0-15.6-5.7-24.3-18.6-24.3a14.77,14.77,0,0,0-12,6c-3.6,4.8-4.8,10.8-7.2,19.8-2.1,8.1-6.9,10.2-12.9,10.2-7.8,0-17.7-7.2-17.7-15.6,0-5.4,3.6-9.3,10.5-14.1,13.5-9,31.2-17.7,48-21.3,12,0,22.2,2.7,30.9,8.7,12.9,9,16.5,21.6,16.5,36.9V171c0,14.4,4.8,18,9.6,18a22.52,22.52,0,0,0,9.3-2.4l3.3,10.2Zm-27.6-75.6c-5.4,3-10.8,6-16.8,9.3-9.3,4.8-14.7,10.2-14.7,20.4,0,16.8,11.7,22.8,18.3,22.8,4.2,0,8.4-.3,13.2-4.8Z"/><path class="cls-3" d="M86.4,212.55v-10.2c13.2-2.1,14.1-4.2,14.1-20.4v-52.8c0-23.1-9.6-30.9-21.3-30.9A30.68,30.68,0,0,0,57.3,107v75c0,16.2,1.5,18.3,15.3,20.4v10.2H1.2v-10.2c14.7-1.8,17.4-2.7,17.4-21.6V41.85c0-13.8-1.8-17.1-18.6-19.8v-9.6A305.28,305.28,0,0,0,57.3,2.25v93c10.5-10.2,25.2-19.5,40.5-19.5,26.1,0,41.7,17.1,41.7,50.1v54.9c0,18.9,2.1,19.2,16.5,21.6v10.2Z"/><path class="cls-3" d="M321,205.35c-18,2.4-37.2,6.3-57,10.8v-20.4c-12.3,10.2-24.9,20.4-41.4,20.4-25.2,0-39.3-16.2-39.3-42.9v-62.1c0-13.8-1.8-15.3-9.9-17.4L167.1,92v-9.6c15.3-.6,39-2.7,55.8-5.1-.6,12.6-.9,28.2-.9,45.3v43.8c0,19.5,9.9,26.1,20.4,26.1,8.4,0,15-1.8,21.6-8.7v-72.3c0-13.8-1.5-16.2-9.9-17.7l-9-1.8v-9.6c17.4-.6,42.9-2.7,57.9-5.1v97.8c0,15.6,1.8,18.9,11.4,19.8l6.6.6Z"/><path class="cls-3" d="M333.3,212.55v-10.2c17.1-2.7,17.7-4.2,17.7-23.1V42.75c0-15.6-1.8-17.4-17.4-20.7v-9.6c20.7-2.1,41.7-5.7,56.1-10.2v177c0,19.8.9,21,18,23.1v10.2Z"/><path class="cls-3" d="M573.29,205.35c-18,2.4-37.2,6.3-57,10.8v-20.4c-12.3,10.2-24.9,20.4-41.4,20.4-25.2,0-39.3-16.2-39.3-42.9v-62.1c0-13.8-1.8-15.3-9.9-17.4l-6.3-1.8v-9.6c15.3-.6,39-2.7,55.8-5.1-.6,12.6-.9,28.2-.9,45.3v43.8c0,19.5,9.9,26.1,20.4,26.1,8.4,0,15-1.8,21.6-8.7v-72.3c0-13.8-1.5-16.2-9.9-17.7l-9-1.8v-9.6c17.4-.6,42.9-2.7,57.9-5.1v97.8c0,15.6,1.8,18.9,11.4,19.8l6.6.6Z"/><path class="cls-3" d="M649.49,212.85a32.77,32.77,0,0,1-12,3.3c-23.1,0-36.9-10.8-36.9-38.1V94.35h-19.2l-1.8-3.6,8.7-11.4h12.3V54.45c10.2-7.2,24.9-16.8,35.4-24l3.9,2.4c-.3,8.1-.9,24-.6,46.5h30c2.7,3,1.5,12.3-2.4,15h-27.6v73.5c0,23.4,9.6,26.1,15.3,26.1,5.1,0,9-.9,14.4-3l3,10.8Z"/><path class="cls-3" d="M798.6,183.15c-18.3,27-42.31,33-54.9,33-40.2,0-63-29.7-63-65.4,0-21,9.9-41.7,22.51-54,13.5-13.5,30.3-21,46.8-21,29.4,0,49.8,24.3,49.5,48.9,0,5.1-.3,10.2-3.9,11.1-5.7,1.5-48,3.6-77.1,4.8,1.2,31.8,18.9,48,40.5,48,11.7,0,23.4-4.2,34.2-13.5ZM744,88.05c-12,0-22.21,14.1-24,37.8,12.29-.3,23.7-.6,36.29-.9,4.21-.3,6-.9,6-6C762.6,104,755.7,88.05,744,88.05Z"/><path class="cls-3" d="M896.69,212.55h-79.2v-10.2c15.9-1.8,17.4-3.3,17.4-21.3v-65.7c0-15-1.2-16.5-15.3-19.5v-9.3a288.88,288.88,0,0,0,54-11.4v32.4c13.5-20.7,24.3-31.8,36.6-31.8,11.1,0,19.5,7.5,19.5,18,0,14.7-10.5,23.1-15.3,25.5a8.25,8.25,0,0,1-9.3-1.5c-5.1-4.2-9-9-14.1-9-4.5,0-12,3.9-17.4,15.3v57c0,18,2.1,18.9,23.1,21.3Z"/><path class="cls-3" d="M1039.79,216.15c-8.1,0-14.7-2.7-18.6-6.3a30.22,30.22,0,0,1-7.8-11.1c-11.4,7.5-26.1,17.4-31.8,17.4-25.8,0-40.8-20.1-40.8-38.7,0-15.9,7.2-23.1,23.1-29.4,17.7-6.6,41.4-13.8,48.3-19.8v-13.2c0-15.6-5.7-24.3-18.6-24.3a14.77,14.77,0,0,0-12,6c-3.6,4.8-4.8,10.8-7.2,19.8-2.1,8.1-6.9,10.2-12.9,10.2-7.8,0-17.7-7.2-17.7-15.6,0-5.4,3.6-9.3,10.5-14.1,13.5-9,31.2-17.7,48-21.3,12,0,22.2,2.7,30.9,8.7,12.9,9,16.5,21.6,16.5,36.9v51.9c0,14.4,4.8,18,9.6,18a22.52,22.52,0,0,0,9.3-2.4l3.3,10.2Zm-27.6-75.6c-5.4,3-10.8,6-16.8,9.3-9.3,4.8-14.7,10.2-14.7,20.4,0,16.8,11.7,22.8,18.3,22.8,4.2,0,8.4-.3,13.2-4.8Z"/></g></g></svg>