<svg xmlns="http://www.w3.org/2000/svg" viewBox="0 0 335.88 140.59"><defs><style>.cls-1,.cls-2{fill:#fff;}.cls-2{font-size:69.48px;font-family:EthiopicWashRaBold, Ethiopic WashRa Bold;}</style></defs><g id="Layer_2" data-name="Layer 2"><g id="Layer_27" data-name="Layer 27"><path class="cls-1" d="M30,34.24c0-6.15-3.21-8.08-8.26-8.08a12.9,12.9,0,0,0-10.1,5.24V61.23H0V0H11.66V22.67a20.52,20.52,0,0,1,15.6-6.88c9.74,0,14.42,5.32,14.42,14V61.23H30Z"/><path class="cls-1" d="M83.17,55.63a20.75,20.75,0,0,1-15.61,6.7c-9.73,0-14.32-5.32-14.32-13.95V16.89H64.9v26.9c0,6.15,3.21,8.17,8.17,8.17a13.05,13.05,0,0,0,10.1-5.05v-30H94.83V61.23H83.17Z"/><path class="cls-1" d="M106.39,0h11.66V61.23H106.39Z"/><path class="cls-1" d="M159.54,55.63a20.74,20.74,0,0,1-15.61,6.7c-9.73,0-14.32-5.32-14.32-13.95V16.89h11.66v26.9c0,6.15,3.22,8.17,8.17,8.17a13.05,13.05,0,0,0,10.1-5.05v-30H171.2V61.23H159.54Z"/><path class="cls-1" d="M185.06,50.21V27.08h-7.35V16.89h7.35V4.77h11.75V16.89h9V27.08h-9v20c0,2.76,1.47,4.87,4,4.87a6.35,6.35,0,0,0,4-1.29l2.48,8.82c-1.75,1.56-4.87,2.84-9.73,2.84C189.46,62.33,185.06,58.11,185.06,50.21Z"/><path class="cls-1" d="M233.89,15.79c13.22,0,22.22,9.91,22.22,24.42v2.57h-33c.74,5.6,5.24,10.28,12.76,10.28,4.13,0,9-1.65,11.85-4.41l5.14,7.53c-4.41,4-11.39,6.15-18.27,6.15-13.5,0-23.69-9.09-23.69-23.31C210.94,26.16,220.4,15.79,233.89,15.79ZM223,34.88h21.85c-.28-4.22-3.21-9.82-10.93-9.82C226.64,25.06,223.52,30.48,223,34.88Z"/><path class="cls-1" d="M264.55,16.89h11.66V23a19,19,0,0,1,14.14-7.07V27.26a15.08,15.08,0,0,0-3.21-.36c-3.86,0-9,2.2-10.93,5.05V61.23H264.55Z"/><path class="cls-1" d="M324.22,56.64c-3,3.58-8.26,5.69-14.05,5.69-7.06,0-15.42-4.77-15.42-14.69,0-10.37,8.36-14.13,15.42-14.13,5.88,0,11.11,1.83,14.05,5.41V32.77c0-4.5-3.86-7.43-9.73-7.43a18.64,18.64,0,0,0-12.94,5.23l-4.41-7.8a29.06,29.06,0,0,1,19.37-7c10.1,0,19.37,4,19.37,16.8V61.23H324.22Zm0-11.57c-1.93-2.57-5.6-3.85-9.36-3.85-4.59,0-8.36,2.39-8.36,6.7,0,4.13,3.77,6.52,8.36,6.52,3.76,0,7.43-1.29,9.36-3.86Z"/><text class="cls-2" transform="translate(62.41 127.81) scale(1.04 1)">ሁሉተራ</text><rect class="cls-1" y="68.15" width="331.57" height="4.34"/></g></g></svg>